<svg width="543" height="569" viewBox="0 0 543 569" fill="none" xmlns="http://www.w3.org/2000/svg">
<path d="M271.664 46.9782C270.802 46.8287 269.915 46.948 269.123 47.3199C268.331 47.6918 267.671 48.2985 267.233 49.0582C266.025 50.7835 264.727 52.4437 263.345 54.032C261.836 55.6276 260.101 56.9904 258.195 58.0765C256.245 59.1683 253.667 60.1955 251.579 58.8728C251.153 58.6191 250.799 58.2602 250.55 57.8304C250.302 57.4006 250.167 56.9141 250.159 56.4172C250.214 55.9493 250.164 55.4749 250.011 55.0293C249.858 54.5838 249.606 54.1787 249.276 53.8442C249.001 53.599 248.653 53.4522 248.286 53.4267C247.919 53.4012 247.554 53.4985 247.248 53.7033C246.421 54.3334 246.497 55.6267 246.384 56.5561C246.224 58.8698 246.499 61.193 247.195 63.4045C247.623 64.7279 247.9 66.0959 248.02 67.4822C247.982 68.1329 247.899 68.7802 247.77 69.4193C247.688 70.1723 247.564 70.9202 247.4 71.6596C246.687 74.4036 245.701 77.0689 244.457 79.6155C244.276 80.0185 244.379 80.6662 244.919 80.7523L251.98 81.8715C252.177 81.9176 252.384 81.8876 252.56 81.7875C252.736 81.6875 252.868 81.5247 252.93 81.3315C253.799 78.849 255.171 76.5744 256.961 74.6514C257.81 73.8808 258.77 73.2435 259.81 72.7613C261.087 72.0764 262.366 71.4757 263.71 70.9063C266.092 69.9928 268.254 68.5807 270.05 66.7639C271.846 64.9472 273.237 62.7674 274.129 60.3697C275.147 57.3971 275.349 54.2043 274.714 51.1264C274.608 50.2289 274.271 49.3745 273.736 48.6472C273.201 47.9199 272.487 47.3448 271.664 46.9782ZM268.448 66.2377C266.449 67.89 264.184 69.1889 261.75 70.0787C259.509 70.8959 257.45 72.1456 255.687 73.7572C253.969 75.6614 252.624 77.874 251.723 80.2788L246.234 79.41C247.054 77.6469 247.77 75.8372 248.379 73.99C248.712 72.9419 248.969 71.8707 249.147 70.785C249.35 69.8068 249.492 68.8167 249.572 67.8207C249.396 65.5313 248.946 63.2715 248.233 61.0897C247.954 60.0295 247.802 58.9398 247.78 57.8436C247.796 57.3114 247.911 56.7635 247.975 56.2352C248.016 55.8928 247.944 54.8519 248.348 55.0906C248.845 55.3841 248.628 57.1334 248.794 57.6832C249.058 58.5163 249.563 59.2523 250.243 59.7983C250.963 60.3523 251.797 60.7362 252.685 60.9215C253.573 61.1068 254.491 61.0888 255.371 60.8686C259.312 59.725 262.798 57.3745 265.342 54.1455C266.062 53.3128 266.74 52.4436 267.372 51.5412C267.913 50.6534 268.555 49.8308 269.283 49.0895C271.332 47.2483 272.806 49.6511 273.232 51.5451C273.758 54.2002 273.594 56.9464 272.756 59.5196C271.918 62.0928 270.435 64.4063 268.448 66.2377V66.2377Z" fill="black"/>
<path d="M283.836 55.2197C283.035 61.673 280.123 67.6773 275.556 72.2917C275.445 72.4423 275.391 72.6281 275.405 72.8152C275.418 73.0022 275.498 73.1782 275.63 73.3109C275.762 73.4437 275.938 73.5244 276.124 73.5385C276.311 73.5525 276.496 73.4989 276.646 73.3874C281.49 68.4746 284.562 62.0816 285.378 55.2197C285.497 54.2316 283.953 54.2394 283.836 55.2197Z" fill="black"/>
<path d="M287.513 69.39C285.009 72.7812 281.8 75.5853 278.109 77.608C277.239 78.0873 278.017 79.4257 278.889 78.9444C282.804 76.7805 286.202 73.7857 288.845 70.1687C289.44 69.3704 288.096 68.5956 287.513 69.39Z" fill="black"/>
<path d="M187.172 222.327C186.751 221.192 186.273 220.073 185.784 218.967C184.775 216.683 183.64 214.457 182.385 212.299C179.887 208.014 176.934 204.012 173.579 200.363C170.88 197.428 166.496 193.492 162.236 195.822C158.39 197.925 162.004 202.966 161.935 206.024C162.004 211.084 160.849 216.013 160.522 221.041C160.116 225.451 160.733 229.895 162.323 234.026C163.897 237.792 166.947 241.61 171.098 242.557C175.25 243.504 178.378 240.637 179.665 236.902C181.121 232.674 179.961 228.123 180.687 223.826C181.083 224.93 181.878 225.845 182.913 226.391C183.482 226.777 184.165 226.957 184.85 226.9C185.534 226.843 186.179 226.554 186.677 226.079C187.174 225.604 187.495 224.972 187.586 224.289C187.677 223.606 187.532 222.912 187.176 222.323L187.172 222.327ZM184.528 225.197C182.362 225.221 181.761 222.483 181.375 220.828C181.18 220.01 180.148 220.184 179.887 220.828C178.132 225.117 179.431 229.664 178.76 234.094C178.247 237.489 176.225 241.594 172.192 241.185C168.078 240.767 165.007 236.704 163.601 233.126C162.24 229.372 161.708 225.366 162.041 221.386C162.337 216.244 163.546 211.211 163.476 206.038C163.403 204.641 163.115 203.263 162.624 201.954C162.077 200.739 161.915 199.384 162.162 198.074C162.797 196.462 165.239 196.579 166.57 196.998C168.34 197.648 169.927 198.717 171.196 200.115C176.904 205.959 181.485 212.813 184.707 220.331C185.254 221.396 185.684 222.517 185.991 223.675C186.172 224.671 185.456 225.186 184.53 225.197H184.528Z" fill="black"/>
<path d="M40.0564 282.117L36.5932 268.316C35.4388 263.722 34.3995 259.079 33.1281 254.516C32.7381 253.117 31.3984 252.197 30.1329 253.354C28.606 254.747 29.9964 256.911 28.9843 258.543C26.5663 262.435 20.9055 260.085 17.8537 258.404C16.1412 257.455 14.535 256.325 13.0626 255.033C11.6137 253.767 10.3794 252.33 9.06117 250.937C8.53764 250.239 7.86352 249.668 7.08923 249.268C6.31493 248.868 5.4605 248.649 4.58982 248.626C3.88855 248.725 3.22594 249.009 2.66961 249.449C2.11328 249.888 1.68312 250.468 1.42302 251.129C0.200845 254.705 0.31729 258.606 1.75062 262.102C2.73929 264.904 4.34847 267.446 6.45709 269.534C8.56571 271.622 11.1189 273.204 13.9245 274.159C16.2758 274.776 18.5919 275.52 20.8626 276.39C22.6736 277.263 24.2464 278.563 25.446 280.181C26.6457 281.798 27.4363 283.683 27.75 285.674C27.8064 285.871 27.9374 286.038 28.115 286.138C28.2925 286.239 28.5024 286.267 28.6996 286.214L39.5163 283.066C39.693 283.017 39.8439 282.901 39.9375 282.743L39.9648 282.708C39.9806 282.677 39.9936 282.645 40.0038 282.612C40.0799 282.458 40.0986 282.283 40.0564 282.117V282.117ZM29.0799 284.5C28.4233 281.552 26.8276 278.899 24.5344 276.941C21.5724 274.437 17.8869 273.895 14.334 272.672C10.7841 271.427 7.70789 269.105 5.53102 266.028C3.35414 262.951 2.18434 259.272 2.18352 255.498C2.03588 253.876 2.45501 252.252 3.36912 250.906C4.71657 249.358 6.54372 250.599 7.66887 251.728C8.94807 253.009 10.0791 254.412 11.4187 255.641C12.7038 256.823 14.0868 257.893 15.5527 258.84C18.5421 260.762 22.4557 262.683 26.1003 262.079C27.7003 261.83 29.1376 260.957 30.0997 259.65C30.5368 259.05 30.8255 258.354 30.9421 257.619C30.9967 257.194 31.0026 256.764 30.9597 256.338C30.9207 255.864 30.7003 255.07 31.0318 254.657C31.5193 254.046 31.6324 254.911 31.728 255.285C31.8762 255.872 32.0205 256.449 32.1667 257.032L33.0871 260.701C33.6864 263.088 34.2857 265.475 34.885 267.862C36.055 272.506 37.2205 277.15 38.3814 281.794L29.0799 284.5Z" fill="black"/>
<path d="M203.667 77.428C201.025 65.3925 203.621 51.6861 196.647 41.5427C190.944 33.2464 179.762 29.8027 169.907 31.7594C160.052 33.716 151.561 40.2865 145.514 48.3304C139.467 56.3742 138.549 65.3142 133.376 73.9627C131.106 77.7508 125.002 83.2177 123.91 88.8784C123.305 91.7065 123.407 94.641 124.208 97.4197C125.01 100.198 126.484 102.735 128.501 104.802C132.633 108.701 138.576 109.819 144.169 110.77C160.463 113.538 177.647 116.235 193.153 110.496C198.689 108.447 204.194 104.947 206.267 99.4013C208.891 92.3691 205.276 84.7557 203.667 77.428ZM164.215 95.85C164.115 96.8283 162.571 96.842 162.671 95.85C163.418 88.2998 162.982 80.6787 161.378 73.2642C161.45 73.2113 161.538 73.184 161.608 73.1292C162.144 73.88 162.73 74.5933 163.363 75.2639C164.606 82.052 164.893 88.9818 164.215 95.85V95.85ZM183.92 98.2254C183.627 99.1763 182.137 98.7674 182.43 97.8125C184.103 92.2988 184.985 86.5743 185.051 80.811C185.583 80.6428 186.111 80.4588 186.634 80.2534C186.61 86.345 185.695 92.4 183.92 98.2254V98.2254ZM197.375 66.3317C196.729 69.7138 194.954 72.7743 192.344 75.0095C189.639 77.4225 186.352 79.0844 182.81 79.8305C179.268 80.5767 175.593 80.3811 172.149 79.2633C168.141 77.8454 164.713 75.136 162.399 71.558C162.339 71.4572 162.256 71.3715 162.158 71.3072C162.06 71.2429 161.948 71.2017 161.832 71.1866C161.715 71.1716 161.597 71.1831 161.486 71.2203C161.374 71.2575 161.273 71.3194 161.189 71.4014C160.478 72.1745 159.512 72.6628 158.47 72.7758C157.428 72.8888 156.381 72.6188 155.522 72.0158C154.704 71.3946 154.046 70.5863 153.603 69.6581C153.159 68.7299 152.943 67.7088 152.973 66.68C153.326 65.47 154.097 64.4258 155.149 63.7348C156.2 63.0438 157.462 62.7512 158.708 62.9095C158.839 62.9434 158.977 62.9423 159.108 62.9064C159.239 62.8706 159.358 62.8011 159.454 62.7049C159.55 62.6087 159.619 62.4891 159.655 62.3579C159.69 62.2267 159.692 62.0884 159.658 61.9566C159.537 61.3539 159.463 60.7415 159.387 60.131C166.555 56.9221 173.667 52.9618 178.35 46.4813C179.979 48.0114 181.646 49.5318 183.383 50.9249C185.159 52.4347 187.219 53.5694 189.442 54.261C192.055 54.9474 194.775 55.1188 197.453 54.7658C198.054 58.5999 198.025 62.507 197.367 66.3317H197.375Z" fill="black"/>
<path d="M171.906 59.679C170.352 59.2987 168.715 59.4883 167.289 60.2135C165.863 60.9387 164.742 62.1517 164.129 63.6334C163.739 64.5531 165.239 64.9522 165.617 64.0463C166.11 62.9553 166.966 62.0712 168.039 61.5464C169.112 61.0217 170.334 60.8892 171.494 61.1719C171.68 61.1954 171.868 61.1509 172.024 61.0466C172.18 60.9423 172.293 60.7852 172.343 60.604C172.393 60.4228 172.377 60.2296 172.296 60.0597C172.216 59.8899 172.077 59.7547 171.906 59.679Z" fill="black"/>
<path d="M192.373 56.3663C191.535 55.884 190.582 55.6416 189.616 55.6658C188.65 55.6899 187.71 55.9796 186.897 56.5033C186.065 57.0414 186.839 58.3817 187.677 57.8417C188.252 57.4532 188.924 57.2343 189.616 57.2097C190.309 57.1852 190.994 57.356 191.595 57.7027C191.768 57.772 191.961 57.7765 192.137 57.7155C192.314 57.6545 192.462 57.532 192.557 57.3703C192.651 57.2086 192.684 57.0183 192.65 56.8341C192.617 56.6499 192.518 56.4839 192.373 56.3663V56.3663Z" fill="black"/>
<path d="M170.153 64.5707C170.068 64.4883 169.967 64.426 169.855 64.3886C169.744 64.3512 169.625 64.3396 169.508 64.3546C169.392 64.3697 169.28 64.411 169.182 64.4755C169.083 64.5401 169 64.6261 168.94 64.7272C168.824 64.9337 168.758 65.1639 168.745 65.4003C168.692 65.6002 168.688 65.81 168.733 66.0118C168.779 66.2136 168.872 66.4012 169.006 66.5586C169.026 66.5958 169.033 66.633 169.055 66.6682C169.131 66.7965 169.245 66.8987 169.38 66.9615C169.515 67.0243 169.666 67.0448 169.813 67.0204C169.987 67.0281 170.159 66.9781 170.302 66.878C170.445 66.7779 170.55 66.6333 170.603 66.4667C170.619 66.4099 170.619 66.3571 170.63 66.3023C170.661 66.2196 170.676 66.1321 170.675 66.044C170.699 65.7752 170.664 65.5045 170.574 65.2503C170.484 64.996 170.34 64.7642 170.153 64.5707V64.5707Z" fill="black"/>
<path d="M189.054 61.7746C189.021 61.7198 188.972 61.667 188.933 61.6122C188.894 61.5574 188.894 61.5496 188.867 61.5241C188.839 61.4987 188.795 61.4146 188.748 61.3637C188.66 61.268 188.547 61.1997 188.422 61.1667C188.297 61.1338 188.165 61.1376 188.042 61.1778C188.011 61.1778 187.985 61.1602 187.954 61.1582C187.818 61.1569 187.684 61.1926 187.567 61.2615C187.449 61.3304 187.353 61.43 187.287 61.5496C187.185 61.7743 187.133 62.0191 187.137 62.2662C187.141 62.5133 187.199 62.7564 187.309 62.9779C187.317 63.0813 187.346 63.182 187.394 63.2739C187.442 63.3658 187.507 63.4471 187.587 63.5129C187.667 63.5786 187.76 63.6275 187.859 63.6567C187.958 63.6858 188.062 63.6945 188.165 63.6823C188.202 63.6941 188.223 63.7215 188.262 63.7313C188.46 63.7837 188.67 63.7563 188.847 63.655C189.025 63.5536 189.156 63.3864 189.212 63.1893C189.275 62.9441 189.291 62.6891 189.259 62.4379C189.251 62.2023 189.181 61.9731 189.054 61.7746V61.7746Z" fill="black"/>
<path d="M183.175 63.6217C183.719 64.8603 183.996 66.9852 182.221 67.3276C181.246 67.5233 181.66 69.0084 182.633 68.8206C183.445 68.605 184.149 68.0972 184.612 67.3939C185.075 66.6906 185.264 65.841 185.142 65.007C184.947 62.8136 183.276 61.1739 182.791 59.0764C182.566 58.098 181.077 58.5168 181.303 59.4873C181.794 60.9222 182.421 62.3067 183.175 63.6217V63.6217Z" fill="black"/>
<path d="M186.521 68.8968C184.68 70.2865 182.442 71.0424 180.139 71.0519C177.835 71.0614 175.59 70.3241 173.739 68.9496C173.621 68.8837 173.488 68.8495 173.354 68.8503C173.219 68.8511 173.086 68.887 172.97 68.9544C172.853 69.0218 172.755 69.1184 172.687 69.2349C172.618 69.3513 172.581 69.4836 172.578 69.6188C172.579 71.7718 173.371 73.849 174.802 75.4527C176.234 77.0564 178.205 78.0739 180.337 78.3103C181.312 78.4336 181.312 76.8839 180.337 76.7607C178.867 76.569 177.493 75.92 176.409 74.9047C175.325 73.8895 174.584 72.559 174.292 71.1C176.319 72.2121 178.619 72.7213 180.923 72.5682C183.228 72.415 185.441 71.6057 187.303 70.2352C188.089 69.658 187.32 68.3039 186.521 68.8968Z" fill="black"/>
<path d="M92.0474 283.772C93.4259 283.772 94.5434 282.651 94.5434 281.268C94.5434 279.884 93.4259 278.763 92.0474 278.763C90.6689 278.763 89.5514 279.884 89.5514 281.268C89.5514 282.651 90.6689 283.772 92.0474 283.772Z" fill="black"/>
<path d="M114.584 278.004C115.962 278.004 117.08 276.883 117.08 275.499C117.08 274.116 115.962 272.995 114.584 272.995C113.205 272.995 112.088 274.116 112.088 275.499C112.088 276.883 113.205 278.004 114.584 278.004Z" fill="black"/>
<path d="M91.3512 270.58C89.9672 270.933 88.7147 271.68 87.7457 272.733C86.7766 273.785 86.1324 275.097 85.8912 276.509C85.743 277.487 87.2308 277.904 87.381 276.92C87.5536 275.769 88.061 274.696 88.8395 273.833C89.6179 272.971 90.6328 272.359 91.7568 272.073C92.7357 271.887 92.3223 270.394 91.3512 270.58Z" fill="black"/>
<path d="M119.17 267.319C116.227 266.035 113.41 265.213 110.375 266.712C109.484 267.152 110.264 268.489 111.155 268.048C112.328 267.589 113.59 267.405 114.844 267.51C116.098 267.616 117.312 268.008 118.392 268.657C119.293 269.042 120.079 267.716 119.17 267.319Z" fill="black"/>
<path d="M113.571 282.766C108.111 284.179 102.757 285.897 97.3104 287.333C97.1971 287.366 97.0926 287.424 97.0049 287.503C96.9172 287.582 96.8485 287.681 96.804 287.79C96.7595 287.9 96.7404 288.018 96.748 288.136C96.7557 288.254 96.79 288.369 96.8483 288.472C97.7352 289.992 98.9777 291.272 100.468 292.201C101.959 293.131 103.652 293.682 105.403 293.808C106.696 293.858 107.982 293.602 109.157 293.059C110.333 292.517 111.364 291.704 112.167 290.687C113.676 288.597 114.507 286.092 114.548 283.512C114.547 283.393 114.518 283.277 114.465 283.171C114.411 283.065 114.335 282.973 114.241 282.901C114.147 282.829 114.037 282.779 113.921 282.756C113.806 282.733 113.686 282.736 113.571 282.766V282.766ZM111.118 289.527C110.465 290.421 109.601 291.139 108.604 291.617C107.606 292.095 106.507 292.318 105.403 292.266C104.094 292.171 102.822 291.788 101.676 291.146C100.531 290.504 99.5397 289.617 98.7729 288.548C103.496 287.277 108.17 285.827 112.897 284.565C112.732 286.343 112.12 288.05 111.118 289.527V289.527Z" fill="black"/>
<path d="M86.7375 512.976C76.4069 506.021 66.9596 497.829 58.6049 488.58C56.9535 486.519 55.0886 484.639 53.0415 482.972C52.22 482.253 51.1641 481.86 50.0736 481.869C49.0401 481.958 48.0478 482.317 47.1948 482.909C46.3418 483.501 45.6577 484.307 45.2103 485.246C42.5759 490.881 46.1853 498.651 50.5533 504.617C56.8206 513.189 76.2757 524.986 76.2757 524.986L86.7375 512.976Z" fill="black"/>
<path d="M437.201 282.453C438.492 282.156 437.946 280.164 436.653 280.461C434.557 280.945 431.778 281.244 431.464 278.425C431.185 275.93 432.428 273.552 431.597 271.069C431.178 269.817 429.191 270.353 429.614 271.619C430.589 274.515 428.53 277.554 429.922 280.454C431.291 283.306 434.602 283.052 437.201 282.453Z" fill="black"/>
<path d="M428.717 271.478C428.722 271.399 428.718 271.32 428.703 271.242C428.703 271.228 428.703 271.218 428.703 271.204C428.682 271.149 428.657 271.095 428.627 271.044C428.612 271.005 428.595 270.967 428.574 270.93C428.448 270.617 428.216 270.358 427.92 270.197C427.623 270.036 427.281 269.984 426.95 270.049C426.619 270.114 426.321 270.292 426.107 270.553C425.893 270.814 425.776 271.141 425.776 271.479C425.776 271.817 425.893 272.145 426.107 272.406C426.321 272.667 426.619 272.845 426.95 272.91C427.281 272.975 427.623 272.922 427.92 272.761C428.216 272.601 428.448 272.341 428.574 272.028C428.596 271.99 428.616 271.95 428.633 271.909C428.66 271.858 428.684 271.806 428.705 271.752C428.705 271.739 428.705 271.729 428.705 271.715C428.719 271.637 428.723 271.557 428.717 271.478Z" fill="black"/>
<path d="M450.498 271.471C450.502 271.392 450.497 271.313 450.483 271.236C450.483 271.222 450.483 271.21 450.483 271.197C450.465 271.136 450.428 271.093 450.407 271.036C450.39 270.998 450.372 270.96 450.352 270.923C450.225 270.61 449.993 270.351 449.697 270.19C449.401 270.029 449.058 269.977 448.727 270.042C448.397 270.107 448.099 270.285 447.885 270.546C447.671 270.807 447.554 271.135 447.554 271.473C447.554 271.811 447.671 272.138 447.885 272.399C448.099 272.66 448.397 272.838 448.727 272.903C449.058 272.968 449.401 272.916 449.697 272.755C449.993 272.594 450.225 272.335 450.352 272.022C450.377 271.985 450.389 271.94 450.41 271.901C450.432 271.862 450.467 271.805 450.485 271.747C450.484 271.734 450.484 271.722 450.485 271.709C450.498 271.631 450.503 271.55 450.498 271.471V271.471Z" fill="black"/>
<path d="M441.425 263.63C440.565 264.634 442.01 266.101 442.88 265.09C443.725 264.112 444.903 263.485 446.184 263.332C447.465 263.179 448.757 263.511 449.808 264.262C450.886 265.045 451.916 263.247 450.847 262.48C449.404 261.495 447.653 261.07 445.921 261.281C444.188 261.493 442.591 262.327 441.425 263.63V263.63Z" fill="black"/>
<path d="M430.142 262.493C431.412 262.885 431.954 260.893 430.69 260.503C429.217 260.059 427.646 260.056 426.17 260.495C424.695 260.935 423.38 261.797 422.387 262.977C421.551 263.994 422.999 265.462 423.842 264.436C424.578 263.518 425.572 262.842 426.695 262.496C427.818 262.149 429.019 262.149 430.142 262.493V262.493Z" fill="black"/>
<path d="M489.414 262.079C487.629 257.655 484.982 253.634 481.628 250.25C482.975 248.11 483.646 245.611 483.552 243.081C483.458 240.551 482.604 238.109 481.102 236.075C479.6 234.041 477.52 232.51 475.136 231.683C472.751 230.856 470.173 230.771 467.74 231.441C466.494 227.076 464.261 223.058 461.214 219.701C459.676 218.04 457.774 216.762 455.658 215.969C453.541 215.176 451.27 214.889 449.024 215.132C446.787 215.457 444.731 216.552 443.21 218.229C441.688 219.907 440.794 222.063 440.682 224.329C434.888 222.66 428.7 223.031 423.146 225.38C417.591 227.73 413.006 231.916 410.151 237.243C408.553 240.065 407.986 243.358 408.55 246.554C408.873 248.135 409.702 249.566 410.911 250.629C412.12 251.693 413.642 252.33 415.246 252.444C412.331 253.919 409.949 256.273 408.433 259.175C406.918 262.077 406.345 265.382 406.795 268.627C407.246 271.871 408.696 274.894 410.944 277.27C413.191 279.646 416.124 281.258 419.329 281.878C419.524 282.483 419.719 283.083 419.94 283.674C420.85 286.105 422.071 288.407 423.571 290.523C423.364 290.498 423.155 290.543 422.976 290.65C418.388 293.384 414.187 296.722 410.482 300.576C409.562 301.533 411.017 302.994 411.937 302.036C415.517 298.307 419.579 295.078 424.015 292.434C424.146 292.361 424.258 292.258 424.341 292.133C424.424 292.008 424.476 291.865 424.493 291.716C425.843 293.414 427.423 294.915 429.187 296.175C433.261 299.063 438.31 300.211 443.227 299.367C446.826 298.707 450.184 297.094 452.953 294.694C447.703 301.559 440.951 307.122 433.219 310.954C432.032 311.541 433.073 313.322 434.259 312.737C443.467 308.156 451.302 301.209 456.964 292.603C459.578 294.207 462.683 294.805 465.702 294.285C468.876 293.566 471.676 291.705 473.573 289.054C475.471 286.402 476.334 283.145 475.998 279.898C478.212 280.769 480.658 280.838 482.917 280.095C485.176 279.351 487.106 277.841 488.375 275.824C489.574 273.761 490.29 271.452 490.47 269.071C490.65 266.69 490.289 264.299 489.414 262.079ZM461.919 271.594C461.089 281.516 455.874 292.691 446.035 296.443C443.955 297.254 441.734 297.636 439.504 297.567C437.274 297.498 435.081 296.979 433.056 296.04C428.791 293.874 425.348 290.37 423.249 286.061C420.787 281.147 419.595 275.69 419.784 270.193C419.686 265.059 421.226 260.028 424.179 255.835C429.602 248.863 439.535 247.617 447.659 249.446C451.567 250.194 455.132 252.184 457.826 255.121C460.568 258.601 462.048 262.914 462.025 267.35C462.067 268.763 462.031 270.177 461.916 271.586L461.919 271.594ZM467.446 275.717C467.14 276.88 466.486 277.922 465.574 278.702C464.661 279.482 463.532 279.964 462.339 280.082C462.742 278.818 463.074 277.534 463.335 276.233C463.637 274.7 463.851 273.151 463.977 271.594C464.049 270.67 464.076 269.737 464.084 268.802C465.375 269.362 466.423 270.367 467.039 271.635C467.655 272.904 467.798 274.351 467.442 275.717H467.446Z" fill="black"/>
<path d="M445.259 282.481C445.104 282.446 444.943 282.457 444.796 282.513C444.648 282.57 444.52 282.669 444.428 282.798C443.302 284.215 441.857 285.344 440.211 286.093C438.566 286.841 436.767 287.187 434.963 287.102C433.639 287.04 433.642 289.106 434.963 289.167C436.757 289.243 438.548 288.956 440.229 288.323C441.91 287.691 443.448 286.725 444.75 285.484C444.668 288.352 443.586 291.101 441.694 293.252C441.035 293.994 442.123 295.093 442.786 294.346C444.143 292.818 445.146 291.009 445.725 289.047C446.304 287.085 446.443 285.02 446.134 282.997C446.124 282.899 446.091 282.804 446.038 282.72C445.984 282.636 445.912 282.567 445.827 282.516C445.742 282.466 445.646 282.437 445.547 282.43C445.448 282.424 445.349 282.441 445.259 282.481V282.481Z" fill="black"/>
<path d="M326.457 109.144C327.367 114.303 328.277 119.462 329.187 124.623C329.36 125.601 330.846 125.188 330.675 124.212C329.765 119.051 328.855 113.891 327.945 108.731C327.773 107.752 326.295 108.167 326.457 109.144Z" fill="#84D0AB"/>
<path d="M331.724 60.6789L332.613 93.4609C332.639 93.6475 332.732 93.8182 332.874 93.9417C333.016 94.0652 333.197 94.1331 333.385 94.1331C333.573 94.1331 333.754 94.0652 333.896 93.9417C334.038 93.8182 334.131 93.6475 334.157 93.4609L333.266 60.6789C333.238 60.4937 333.145 60.3247 333.004 60.2026C332.862 60.0805 332.682 60.0133 332.495 60.0133C332.308 60.0133 332.128 60.0805 331.986 60.2026C331.845 60.3247 331.752 60.4937 331.724 60.6789Z" fill="#84D0AB"/>
<path d="M338.315 109.84L340.198 133.516C340.276 134.494 341.821 134.512 341.741 133.516C341.113 125.626 340.486 117.735 339.859 109.84C339.779 108.854 338.235 108.846 338.315 109.84Z" fill="#84D0AB"/>
<path d="M344.069 75.2482C344.11 84.0493 344.151 92.851 344.194 101.653C344.222 101.839 344.315 102.008 344.457 102.13C344.598 102.252 344.779 102.319 344.965 102.319C345.152 102.319 345.332 102.252 345.474 102.13C345.615 102.008 345.709 101.839 345.737 101.653C345.696 92.8523 345.655 84.0506 345.612 75.2482C345.584 75.063 345.491 74.894 345.349 74.7719C345.208 74.6497 345.027 74.5826 344.841 74.5826C344.654 74.5826 344.473 74.6497 344.332 74.7719C344.19 74.894 344.097 75.063 344.069 75.2482V75.2482Z" fill="#84D0AB"/>
<path d="M347.224 29.7204C347.939 40.6399 348.654 51.5594 349.369 62.4789C349.434 63.469 350.978 63.4768 350.914 62.4789C350.196 51.5607 349.481 40.6412 348.769 29.7204C348.702 28.7304 347.16 28.7245 347.224 29.7204Z" fill="#84D0AB"/>
<path d="M355.469 98.9199V129.88C355.495 130.067 355.588 130.238 355.73 130.361C355.872 130.485 356.053 130.553 356.241 130.553C356.429 130.553 356.61 130.485 356.752 130.361C356.894 130.238 356.987 130.067 357.013 129.88V98.9199C356.987 98.7334 356.894 98.5627 356.752 98.4392C356.61 98.3157 356.429 98.2477 356.241 98.2477C356.053 98.2477 355.872 98.3157 355.73 98.4392C355.588 98.5627 355.495 98.7334 355.469 98.9199V98.9199Z" fill="#84D0AB"/>
<path d="M339.467 53.4177L337.648 27.0027C337.58 26.0243 336.035 26.0067 336.105 27.0027L337.925 53.4177C337.995 54.396 339.537 54.4077 339.467 53.4177Z" fill="#84D0AB"/>
<path d="M322.758 11.5039L323.664 40.6446C323.696 41.6386 325.238 41.6425 325.209 40.6446L324.302 11.5039C324.271 10.51 322.728 10.506 322.758 11.5039Z" fill="#84D0AB"/>
<path d="M318.06 55.2276C318.994 67.0629 319.928 78.8987 320.864 90.7353C320.94 91.7136 322.485 91.7312 322.407 90.7353L319.605 55.2276C319.527 54.2415 317.982 54.2336 318.06 55.2276Z" fill="#84D0AB"/>
<path d="M338.8 18.7964C338.119 13.0386 337.439 7.28012 336.761 1.521C336.646 0.542663 335.101 0.530923 335.218 1.521C335.897 7.27881 336.576 13.0373 337.256 18.7964C337.373 19.7728 338.917 19.7845 338.8 18.7964Z" fill="#84D0AB"/>
<path d="M362.37 9.66861L361.647 27.8871C361.608 28.8831 363.15 28.8831 363.191 27.8871L363.914 9.66861C363.953 8.67071 362.411 8.67266 362.37 9.66861Z" fill="#84D0AB"/>
<path d="M358.47 57.9748L359.726 84.3643C359.773 85.3564 361.317 85.3622 361.268 84.3643L360.014 57.9748C359.968 56.9808 358.425 56.9769 358.47 57.9748Z" fill="#84D0AB"/>
<path d="M265.732 540.954C258.371 534.077 244.307 539.802 234.637 542.835C224.967 545.868 217.69 548.388 209.092 553.757C206.947 555.093 204.49 557.236 205.294 559.627C206.144 562.159 209.654 562.204 212.28 561.76L255.49 554.424C258.729 554.192 261.827 553.007 264.396 551.016C266.728 548.793 268.38 542.796 265.732 540.954Z" fill="black"/>
<path d="M419.505 488.721C419.066 487.827 417.734 488.612 418.171 489.504C419.356 491.918 420.476 494.362 421.533 496.835C421.923 497.749 423.253 496.961 422.867 496.053C421.805 493.581 420.684 491.137 419.505 488.721Z" fill="black"/>
<path d="M427.02 482.02C427.461 486.956 428.023 491.878 428.707 496.787C428.843 497.765 430.331 497.35 430.195 496.374C429.532 491.603 428.988 486.819 428.565 482.02C428.475 481.035 426.932 481.026 427.02 482.02Z" fill="black"/>
<path d="M437.055 480.253L435.657 496.755C435.571 497.749 437.115 497.734 437.199 496.755L438.597 480.253C438.681 479.259 437.137 479.265 437.055 480.253Z" fill="black"/>
<path d="M445.079 480.441L440.604 497.055C440.581 497.241 440.626 497.429 440.73 497.585C440.834 497.741 440.991 497.854 441.171 497.904C441.352 497.954 441.544 497.937 441.713 497.857C441.882 497.776 442.016 497.637 442.092 497.466L446.567 480.853C446.59 480.667 446.546 480.478 446.442 480.322C446.338 480.165 446.182 480.052 446.001 480.001C445.82 479.951 445.628 479.968 445.459 480.049C445.289 480.129 445.155 480.268 445.079 480.441Z" fill="black"/>
<path d="M453.203 483.407L447.833 497.025C447.466 497.951 448.96 498.354 449.32 497.436L454.691 483.818C455.055 482.892 453.564 482.489 453.203 483.407Z" fill="black"/>
<path d="M458.673 489.308L454.732 497.029C454.279 497.916 455.611 498.7 456.064 497.812C457.378 495.237 458.692 492.663 460.005 490.089C460.455 489.204 459.127 488.42 458.673 489.308Z" fill="black"/>
<path d="M470.663 510.104C470.285 509.198 468.791 509.595 469.173 510.515L471.502 516.118C471.878 517.024 473.374 516.627 472.991 515.708L470.663 510.104Z" fill="black"/>
<path d="M475.751 507.805C475.675 507.632 475.541 507.493 475.371 507.413C475.202 507.332 475.01 507.315 474.829 507.365C474.648 507.416 474.492 507.529 474.388 507.686C474.284 507.842 474.24 508.031 474.263 508.217C474.987 510.927 475.711 513.637 476.435 516.347C476.511 516.52 476.645 516.659 476.815 516.739C476.984 516.82 477.176 516.837 477.357 516.787C477.538 516.736 477.694 516.623 477.798 516.466C477.902 516.31 477.946 516.121 477.923 515.935C477.198 513.221 476.474 510.511 475.751 507.805Z" fill="black"/>
<path d="M481.006 506.867V516.58C481.034 516.765 481.127 516.934 481.269 517.056C481.41 517.179 481.591 517.246 481.777 517.246C481.964 517.246 482.144 517.179 482.286 517.056C482.427 516.934 482.521 516.765 482.549 516.58V506.867C482.521 506.682 482.427 506.513 482.286 506.391C482.144 506.269 481.964 506.202 481.777 506.202C481.591 506.202 481.41 506.269 481.269 506.391C481.127 506.513 481.034 506.682 481.006 506.867V506.867Z" fill="black"/>
<path d="M489.666 505.408C488.943 509.034 488.22 512.659 487.498 516.283C487.303 517.261 488.791 517.672 488.986 516.694C489.708 513.07 490.431 509.446 491.154 505.82C491.349 504.838 489.861 504.429 489.666 505.408Z" fill="black"/>
<path d="M498 506.605L494.342 515.97C493.979 516.899 495.471 517.3 495.83 516.383L499.488 507.016C499.845 506.089 498.359 505.686 498 506.605Z" fill="black"/>
<path d="M506.904 510.481L503.589 515.845C503.062 516.694 504.396 517.47 504.921 516.627L508.236 511.266C508.762 510.415 507.427 509.636 506.904 510.481Z" fill="black"/>
<path d="M13.9596 212.17C13.4857 211.293 12.1519 212.074 12.6258 212.952L22.1808 230.627C22.6546 231.504 23.9865 230.723 23.5126 229.844C20.3276 223.954 17.1433 218.062 13.9596 212.17Z" fill="black"/>
<path d="M31.4121 214.647C30.3981 219.907 29.3847 225.167 28.372 230.428C28.177 231.406 29.6727 231.819 29.8618 230.838C30.8745 225.579 31.8872 220.319 32.8999 215.058C33.0871 214.08 31.6012 213.669 31.4121 214.647Z" fill="black"/>
<path d="M53.7962 216.175L41.7062 234.396C41.1543 235.227 42.4862 236.004 43.04 235.178L55.13 216.956C55.6818 216.124 54.3441 215.347 53.7962 216.175Z" fill="black"/>
<path d="M524.078 239.753C523.641 238.596 522.966 237.544 522.098 236.666C521.23 235.788 520.188 235.102 519.039 234.654C517.797 234.355 516.493 234.449 515.307 234.922C514.12 235.395 513.108 236.225 512.409 237.297C510.768 240.029 509.98 243.191 510.147 246.376C510.318 248.1 509.972 249.835 509.154 251.36C507.709 253.054 505.95 250.348 505.321 249.243C505.029 248.542 504.601 247.907 504.061 247.375C503.52 246.843 502.879 246.426 502.175 246.147C501.585 245.946 500.946 245.944 500.355 246.144C499.764 246.343 499.255 246.732 498.907 247.251C498.839 247.37 498.802 247.505 498.802 247.642C498.802 247.78 498.839 247.915 498.907 248.034C503.524 256.549 506.177 265.996 506.67 275.677C506.719 276.667 508.263 276.675 508.212 275.677C507.716 265.914 505.081 256.381 500.496 247.756C501.276 247.124 502.594 247.975 503.107 248.624C503.824 249.865 504.624 251.055 505.504 252.186C505.915 252.636 506.432 252.976 507.007 253.176C507.583 253.376 508.198 253.43 508.799 253.332C509.324 253.174 509.802 252.89 510.192 252.503C510.582 252.117 510.871 251.64 511.034 251.115C511.446 249.797 511.655 248.423 511.654 247.042C511.687 245.338 511.833 243.638 512.093 241.954C512.573 239.479 514.066 236.528 516.798 236.033C519.31 235.579 521.196 237.618 522.295 239.622C523.496 242.085 524.286 244.729 524.635 247.448C526.78 260.01 524.111 272.921 517.163 283.59C516.615 284.426 517.943 285.202 518.495 284.373C525.414 273.687 528.196 260.829 526.316 248.225C525.97 245.31 525.217 242.457 524.078 239.753V239.753Z" fill="black"/>
<path d="M524.577 222.505C524.058 221.656 522.722 222.435 523.245 223.288C529.251 233.128 532.471 244.425 532.558 255.964C532.584 259.211 532.353 262.456 531.87 265.667C531.724 266.645 533.209 267.062 533.36 266.08C535.121 254.346 533.651 242.352 529.109 231.396C527.831 228.319 526.316 225.346 524.577 222.505V222.505Z" fill="black"/>
<path d="M540.036 233.47C539.961 233.298 539.826 233.159 539.657 233.078C539.488 232.998 539.295 232.981 539.115 233.031C538.934 233.081 538.777 233.195 538.673 233.351C538.57 233.508 538.525 233.696 538.549 233.883C541.913 245.685 541.661 258.23 537.825 269.886C537.513 270.833 538.995 271.24 539.313 270.297C543.225 258.371 543.477 245.541 540.036 233.47V233.47Z" fill="black"/>
<path d="M494.697 403.503C498.162 403.868 501.525 404.902 504.599 406.547C506.028 407.291 507.914 408.079 509.355 406.948C509.873 406.43 510.225 405.769 510.368 405.049C510.511 404.329 510.437 403.583 510.157 402.906C509.239 399.535 507.911 396.29 506.202 393.246C504.648 390.268 502.281 387.797 499.377 386.122C497.7 385.225 495.399 384.584 494.57 382.676C493.759 380.805 495.764 379.52 496 377.765C496.083 377.439 496.095 377.1 496.035 376.769C495.974 376.439 495.842 376.126 495.648 375.852C495.454 375.578 495.203 375.35 494.912 375.184C494.621 375.018 494.297 374.918 493.964 374.89C492.234 374.89 491.123 376.927 490.13 378.076C484.446 384.629 477.227 389.662 469.123 392.721C468.2 393.068 468.6 394.565 469.532 394.214C476.307 391.673 482.505 387.792 487.757 382.803C489.04 381.58 490.26 380.293 491.413 378.946C491.969 378.297 492.466 377.567 493.079 376.972C493.313 376.745 493.757 376.307 494.126 376.458C494.494 376.608 494.516 377.117 494.49 377.436C494.324 378.179 493.99 378.874 493.515 379.469C493.028 380.216 492.785 381.097 492.821 381.989C492.942 382.792 493.243 383.556 493.702 384.224C494.162 384.893 494.766 385.447 495.471 385.846C496.982 386.824 498.71 387.376 500.175 388.444C501.495 389.436 502.646 390.636 503.585 391.997C505.43 394.809 506.883 397.861 507.904 401.068C508.294 402.199 509.464 404.44 508.575 405.569C507.518 406.891 504.87 404.917 503.792 404.416C500.834 403.046 497.659 402.206 494.412 401.935C486.916 401.274 479.462 403.593 473.653 408.392C472.89 409.034 473.988 410.124 474.745 409.488C477.516 407.224 480.704 405.531 484.127 404.504C487.551 403.477 491.142 403.136 494.697 403.503V403.503Z" fill="black"/>
<path d="M515.279 432.322C513.054 428.565 509.914 425.438 506.154 423.232C502.393 421.026 498.137 419.815 493.782 419.712C491.306 419.651 488.835 419.981 486.46 420.69C486.287 420.764 486.147 420.9 486.065 421.07C485.983 421.241 485.966 421.435 486.016 421.617C486.066 421.8 486.181 421.958 486.338 422.062C486.495 422.166 486.685 422.21 486.872 422.185C491.953 420.772 497.358 421.075 502.25 423.049C507.143 425.023 511.253 428.557 513.945 433.107C514.062 433.256 514.228 433.358 514.414 433.393C514.599 433.429 514.791 433.396 514.954 433.3C515.117 433.204 515.24 433.052 515.3 432.872C515.36 432.692 515.352 432.497 515.279 432.322Z" fill="black"/>
<path d="M359.264 548.846C358.887 547.94 357.392 548.337 357.774 549.259L360.102 554.861C360.481 555.768 361.974 555.369 361.592 554.45L359.264 548.846Z" fill="black"/>
<path d="M364.353 546.556C364.279 546.383 364.144 546.242 363.974 546.16C363.804 546.078 363.611 546.06 363.429 546.111C363.247 546.161 363.09 546.276 362.986 546.434C362.882 546.591 362.838 546.782 362.863 546.969C363.586 549.679 364.31 552.389 365.036 555.099C365.111 555.271 365.246 555.41 365.415 555.49C365.584 555.571 365.776 555.588 365.956 555.538C366.137 555.488 366.293 555.375 366.397 555.219C366.501 555.063 366.546 554.875 366.523 554.688L364.353 546.556Z" fill="black"/>
<path d="M369.606 545.619V555.332C369.634 555.517 369.728 555.686 369.869 555.808C370.011 555.93 370.191 555.998 370.378 555.998C370.564 555.998 370.745 555.93 370.886 555.808C371.028 555.686 371.121 555.517 371.149 555.332V545.619C371.121 545.434 371.028 545.265 370.886 545.143C370.745 545.021 370.564 544.953 370.378 544.953C370.191 544.953 370.011 545.021 369.869 545.143C369.728 545.265 369.634 545.434 369.606 545.619Z" fill="black"/>
<path d="M378.266 544.15C377.545 547.773 376.822 551.398 376.098 555.023C375.903 556.001 377.391 556.412 377.588 555.434C378.309 551.81 379.031 548.186 379.754 544.561C379.949 543.592 378.461 543.171 378.266 544.15Z" fill="black"/>
<path d="M386.601 545.357L382.943 554.716C382.58 555.645 384.072 556.046 384.43 555.129C385.651 552.006 386.871 548.884 388.091 545.764C388.451 544.84 386.96 544.439 386.601 545.357Z" fill="black"/>
<path d="M395.504 549.237L392.189 554.598C391.663 555.448 392.997 556.226 393.521 555.381L396.836 550.02C397.363 549.167 396.029 548.39 395.504 549.237Z" fill="black"/>
<path d="M138.785 529.486C138.409 528.58 136.915 528.978 137.297 529.899L139.625 535.501C140.002 536.409 141.497 536.01 141.113 535.09L138.785 529.486Z" fill="black"/>
<path d="M143.874 527.191C143.799 527.019 143.664 526.881 143.495 526.8C143.326 526.72 143.134 526.703 142.954 526.753C142.774 526.802 142.617 526.916 142.513 527.071C142.409 527.227 142.364 527.416 142.387 527.602C143.111 530.311 143.835 533.021 144.559 535.732C144.634 535.904 144.769 536.042 144.938 536.123C145.107 536.203 145.299 536.22 145.48 536.171C145.66 536.121 145.816 536.008 145.921 535.852C146.025 535.696 146.069 535.507 146.047 535.321C145.323 532.612 144.599 529.902 143.874 527.191Z" fill="black"/>
<path d="M149.13 526.252V535.965C149.158 536.15 149.251 536.319 149.392 536.441C149.534 536.564 149.714 536.631 149.901 536.631C150.088 536.631 150.268 536.564 150.409 536.441C150.551 536.319 150.644 536.15 150.672 535.965V526.252C150.644 526.067 150.551 525.898 150.409 525.776C150.268 525.654 150.088 525.586 149.901 525.586C149.714 525.586 149.534 525.654 149.392 525.776C149.251 525.898 149.158 526.067 149.13 526.252V526.252Z" fill="black"/>
<path d="M157.79 524.779C157.067 528.402 156.344 532.027 155.621 535.652C155.426 536.63 156.914 537.041 157.109 536.065C157.833 532.44 158.556 528.815 159.277 525.19C159.472 524.225 157.985 523.8 157.79 524.779Z" fill="black"/>
<path d="M166.124 525.99L162.466 535.356C162.103 536.284 163.595 536.687 163.954 535.767L167.612 526.403C167.974 525.473 166.483 525.072 166.124 525.99Z" fill="black"/>
<path d="M175.028 529.866L171.713 535.227C171.186 536.076 172.52 536.855 173.044 536.01L176.359 530.647C176.886 529.801 175.56 529.023 175.028 529.866Z" fill="black"/>
<path d="M77.3853 560.991C77.009 560.085 75.5153 560.482 75.8975 561.402L78.2258 567.006C78.6021 567.911 80.0958 567.514 79.7136 566.593L77.3853 560.991Z" fill="black"/>
<path d="M82.4748 558.694C82.3993 558.522 82.2648 558.383 82.0958 558.303C81.9268 558.222 81.7346 558.205 81.5542 558.255C81.3739 558.305 81.2173 558.418 81.1132 558.574C81.0091 558.73 80.9643 558.918 80.987 559.104L83.1593 567.236C83.2347 567.409 83.3694 567.548 83.5387 567.628C83.7079 567.709 83.9005 567.726 84.0811 567.676C84.2617 567.625 84.4183 567.512 84.5222 567.355C84.6261 567.199 84.6705 567.01 84.6471 566.824C83.9243 564.114 83.2002 561.404 82.4748 558.694Z" fill="black"/>
<path d="M87.7301 557.756V567.469C87.758 567.654 87.8512 567.823 87.9927 567.945C88.1342 568.068 88.3147 568.135 88.5013 568.135C88.688 568.135 88.8684 568.068 89.0099 567.945C89.1515 567.823 89.2446 567.654 89.2725 567.469V557.756C89.2446 557.571 89.1515 557.402 89.0099 557.28C88.8684 557.158 88.688 557.091 88.5013 557.091C88.3147 557.091 88.1342 557.158 87.9927 557.28C87.8512 557.402 87.758 557.571 87.7301 557.756V557.756Z" fill="black"/>
<path d="M96.39 556.281C95.6672 559.906 94.9444 563.531 94.2216 567.156C94.0266 568.134 95.5145 568.545 95.7095 567.567C96.4323 563.942 97.1551 560.318 97.8779 556.694C98.0729 555.727 96.585 555.303 96.39 556.281Z" fill="black"/>
<path d="M104.724 557.494L101.07 566.859C100.707 567.786 102.199 568.189 102.558 567.27C103.776 564.148 104.995 561.027 106.216 557.905C106.575 556.978 105.083 556.574 104.724 557.494Z" fill="black"/>
<path d="M113.626 561.368L110.311 566.732C109.786 567.579 111.12 568.357 111.645 567.514L114.96 562.153C115.486 561.304 114.151 560.525 113.626 561.368Z" fill="black"/>
<path d="M458.012 557.909C457.635 557.001 456.142 557.4 456.524 558.32L458.852 563.924C459.228 564.83 460.722 564.433 460.34 563.511L458.012 557.909Z" fill="black"/>
<path d="M463.101 555.612C463.026 555.44 462.891 555.301 462.722 555.221C462.553 555.14 462.361 555.123 462.181 555.173C462 555.223 461.844 555.336 461.74 555.492C461.635 555.648 461.591 555.836 461.613 556.023L463.784 564.153C463.859 564.324 463.994 564.463 464.163 564.544C464.332 564.624 464.524 564.641 464.704 564.591C464.885 564.541 465.041 564.428 465.145 564.272C465.249 564.116 465.294 563.928 465.271 563.742L463.101 555.612Z" fill="black"/>
<path d="M468.354 554.673V564.385C468.381 564.572 468.474 564.743 468.616 564.866C468.757 564.99 468.939 565.058 469.127 565.058C469.314 565.058 469.496 564.99 469.638 564.866C469.78 564.743 469.872 564.572 469.899 564.385V554.673C469.872 554.486 469.78 554.315 469.638 554.192C469.496 554.068 469.314 554 469.127 554C468.939 554 468.757 554.068 468.616 554.192C468.474 554.315 468.381 554.486 468.354 554.673Z" fill="black"/>
<path d="M477.016 553.207C476.294 556.831 475.571 560.455 474.848 564.08C474.653 565.059 476.141 565.472 476.336 564.493C477.057 560.868 477.78 557.243 478.504 553.618C478.697 552.646 477.209 552.229 477.016 553.207Z" fill="black"/>
<path d="M485.351 554.412L481.69 563.777C481.328 564.704 482.821 565.108 483.18 564.188L486.838 554.823C487.201 553.896 485.709 553.493 485.351 554.412Z" fill="black"/>
<path d="M494.252 558.288L490.937 563.65C490.411 564.499 491.747 565.278 492.269 564.432L495.584 559.071C496.111 558.222 494.775 557.443 494.252 558.288Z" fill="black"/>
<path d="M198.888 191.826C199.475 192.57 200.099 193.283 200.758 193.963C204.117 197.243 208.036 199.889 212.329 201.776L238.605 161.551C234.78 160.696 231.043 159.279 227.284 158.121C221.434 168.614 213.207 177.531 204.911 186.138C203.07 188.204 201.054 190.107 198.888 191.826V191.826Z" fill="#84D0AB"/>
<path d="M257.639 77.6804C254.898 72.6987 247.743 71.7869 242.581 74.1408C237.42 76.4946 233.754 81.1691 230.158 85.5677C226.562 89.9663 222.553 94.4549 217.136 96.163C207.372 99.2487 188.994 88.7023 177.724 89.5534C176.593 89.47 175.456 89.4785 174.326 89.5789C165.182 90.4124 158.634 97.838 154.046 105.156C148.693 113.782 144.48 123.069 141.511 132.784C138.172 143.002 136.525 153.7 136.636 164.453C136.76 174.473 139.368 184.304 144.223 193.061C148.453 200.403 155.516 208.501 164.663 208.756C166.591 208.815 168.512 208.485 170.31 207.786C172.109 207.087 173.75 206.033 175.135 204.686C176.444 203.397 177.387 201.782 177.865 200.005C178.376 197.496 178.196 194.895 177.346 192.48C176.549 189.79 175.459 187.179 174.47 184.555L171.545 176.803C169.556 171.523 167.566 166.24 165.576 160.954C165.225 160.019 166.715 159.622 167.066 160.543C169.487 167.366 172.584 173.929 176.311 180.131C177.991 182.82 179.911 185.351 182.046 187.692C184.074 190.156 186.62 192.139 189.502 193.499C191.071 194.092 192.77 194.249 194.421 193.954C196.071 193.659 197.612 192.923 198.88 191.823C201.047 190.103 203.062 188.2 204.904 186.134C213.199 177.525 221.428 168.611 227.276 158.117C227.828 157.127 228.387 156.143 228.894 155.121C228.79 155.133 228.685 155.124 228.584 155.094C228.484 155.064 228.39 155.014 228.309 154.947C226.554 153.542 224.93 151.98 223.456 150.281C219.115 144.982 215.637 139.027 213.152 132.637C216.388 132.433 219.573 131.732 222.598 130.559C240.869 122.226 251.158 109.036 257.409 89.8958C258.727 85.9121 259.661 81.3511 257.639 77.6804ZM168.93 143.773C168.872 143.848 168.799 143.91 168.714 143.954C168.63 143.997 168.537 144.022 168.442 144.025C167.996 148.718 166.777 153.304 164.835 157.597C164.424 158.502 163.094 157.716 163.501 156.814C166.939 149.206 167.967 140.723 166.448 132.51C166.266 131.532 167.754 131.121 167.937 132.099C168.519 135.235 168.746 138.427 168.616 141.614C170.301 139.048 171.023 135.964 170.656 132.913C170.541 131.923 172.085 131.935 172.198 132.913C172.414 134.851 172.235 136.813 171.674 138.679C171.112 140.546 170.179 142.279 168.93 143.773V143.773ZM187.09 124.809C186.286 123.594 185.479 122.38 184.67 121.165C184.119 120.334 185.45 119.559 186.004 120.383L188.424 124.024C188.97 124.86 187.632 125.634 187.083 124.809H187.09ZM192.617 136.281C192.01 135.498 193.352 134.715 193.95 135.498L197.129 139.628C197.735 140.411 196.394 141.194 195.795 140.411C194.73 139.028 193.668 137.652 192.609 136.281H192.617ZM203.958 154.605L201.522 150.973C200.965 150.142 202.302 149.369 202.854 150.191L205.29 153.822C205.84 154.652 204.502 155.427 203.95 154.605H203.958ZM211.292 167.91C210.484 166.696 209.678 165.481 208.872 164.267C208.318 163.435 209.652 162.66 210.204 163.484L212.624 167.125C213.17 167.961 211.83 168.736 211.284 167.91H211.292ZM212.044 154.08C209.814 151.548 207.69 148.927 205.674 146.217C204.843 145.1 204.034 143.968 203.246 142.82C202.649 141.957 202.076 141.076 201.505 140.198C201.341 139.947 201.171 139.703 201.011 139.45C200.305 138.348 199.618 137.233 198.95 136.104L198.921 136.058C194.919 129.335 191.577 122.239 188.941 114.869C188.605 113.928 190.097 113.527 190.431 114.458C191.555 117.612 192.812 120.715 194.2 123.768C195.59 126.812 197.125 129.788 198.761 132.702C199.763 134.48 200.81 136.232 201.901 137.959L201.984 138.094C203.079 139.82 204.215 141.516 205.393 143.182L205.498 143.325C206.54 144.79 207.622 146.224 208.727 147.641C208.993 147.981 209.258 148.32 209.527 148.656C210.697 150.124 211.894 151.572 213.134 152.981C213.78 153.728 212.696 154.828 212.037 154.08H212.044Z" fill="#F36E72"/>
<path d="M106.879 300.255C104.488 300.517 102.07 300.333 99.746 299.711C100.341 303.921 100.937 308.131 101.532 312.341C103.841 311.662 106.113 310.878 108.322 310.027C112.932 308.248 117.464 306.199 122.017 304.239C121.163 300.631 120.387 297.006 119.689 293.364C116.447 297.212 111.867 299.676 106.879 300.255V300.255Z" fill="black"/>
<path d="M100.044 312.758L98.1274 299.212C94.3305 297.791 91.006 295.332 88.5305 292.113C86.0549 288.894 84.5273 285.043 84.1206 280.998C82.7888 269.097 90.8189 258.424 102.061 257.158C106.588 256.733 111.129 257.817 114.979 260.244C118.83 262.671 121.776 266.304 123.36 270.58C123.397 270.58 123.433 270.569 123.47 270.569C124.796 270.562 126.079 271.043 127.076 271.92C128.073 272.797 128.717 274.01 128.884 275.33C129.052 276.65 128.733 277.986 127.987 279.086C127.241 280.186 126.12 280.975 124.835 281.303C124.455 285.057 123.12 288.651 120.96 291.74C121.697 295.721 122.534 299.682 123.47 303.623C128.091 301.589 132.847 299.88 137.705 298.51C137.58 296.424 137.432 294.34 137.225 292.26C136.632 285.439 135.297 278.703 133.245 272.173C131.535 266.316 128.484 260.941 124.335 256.477C120.069 252.193 114.347 249.684 108.316 249.452C104.133 249.24 99.9509 249.877 96.0199 251.327C92.0889 252.777 88.4905 255.009 85.4407 257.889C79.0057 264.133 75.3631 272.703 72.9042 281.191C70.4546 290.641 68.9805 300.318 68.505 310.07C69.744 310.853 71.0369 311.547 72.3738 312.146C81.0162 315.961 90.776 315.28 100.044 312.758Z" fill="black"/>
<path d="M77.4536 369.398C74.5169 365.226 69.7355 362.968 65.1101 360.702C65.0633 361.133 65.0262 361.563 64.9833 361.996C64.7995 368.677 65.4547 375.355 66.9333 381.872C67.5152 383.449 68.2329 384.972 69.0783 386.425C71.2265 389.945 74.329 392.778 78.023 394.594C79.3705 395.271 80.7698 395.839 82.2077 396.292C81.9204 392.366 81.635 388.439 81.3516 384.513C80.9675 379.256 80.4858 373.705 77.4536 369.398Z" fill="black"/>
<path d="M167.546 489.414C162.11 486.419 157.02 482.833 152.367 478.721C149.235 476.132 146.185 473.438 143.174 470.716C146.058 467.135 148.886 463.512 151.581 459.786C155.481 454.397 159.153 448.853 162.598 443.154C164.288 440.359 165.91 437.526 167.464 434.655L167.618 434.363V431.138C167.503 431.334 167.37 431.551 167.302 431.68C166.912 432.412 166.522 433.143 166.132 433.872C165.365 435.285 164.585 436.688 163.792 438.081C160.542 443.762 157.051 449.291 153.32 454.669C145.774 465.506 137.46 475.784 128.444 485.424C119.485 495.024 110.006 504.12 100.048 512.671C98.9081 513.677 97.6923 514.592 96.4115 515.41C92.1124 511.806 87.7652 508.262 83.3699 504.778C83.4575 504.77 83.5427 504.744 83.6201 504.702C83.6976 504.66 83.7657 504.602 83.8203 504.533C94.9691 491.177 105.845 477.598 116.448 463.795C127.079 449.958 137.426 435.906 147.49 421.641C152.965 413.879 158.353 406.053 163.653 398.161L161.54 398.523C152.281 412.253 142.768 425.799 132.999 439.161C122.696 453.237 112.108 467.097 101.238 480.74C95.1537 488.376 88.9826 495.942 82.7244 503.437C82.6405 503.535 82.5826 503.652 82.5563 503.778C82.5301 503.904 82.5362 504.034 82.5743 504.157C79.0448 501.357 75.4977 498.578 71.9331 495.82C73.5068 492.92 75.5348 490.222 77.358 487.487C79.3704 484.467 81.3854 481.447 83.403 478.427L95.5788 460.16L119.928 423.619L133.05 403.943L132.496 404.07C131.948 404.193 131.402 404.33 130.854 404.461L127.957 408.809L121.717 418.17C118.012 423.731 114.307 429.291 110.602 434.85C107.357 430.516 104.358 426.002 101.62 421.33C100.108 418.737 98.8337 416.013 97.8116 413.19C97.3085 413.323 96.8054 413.46 96.3003 413.591C98.99 420.256 102.542 426.536 106.863 432.271C107.786 433.594 108.761 434.876 109.722 436.169L109.137 437.042L84.0758 474.633L77.0324 485.199L73.5107 490.482C72.3343 492.133 71.2522 493.85 70.2698 495.624C70.1738 495.803 70.149 496.012 70.2004 496.208C70.2518 496.405 70.3755 496.574 70.5467 496.683C79.0935 503.269 87.5526 509.973 95.8187 516.913C95.9418 517.029 96.0984 517.103 96.2661 517.125C96.4338 517.147 96.6041 517.115 96.7527 517.034C99.5506 515.212 102.163 513.118 104.553 510.783C107.023 508.605 109.461 506.396 111.867 504.155C116.734 499.63 121.473 494.969 126.083 490.173C131.703 484.312 137.075 478.226 142.201 471.915C143.912 473.469 145.622 475.021 147.373 476.523C152.415 481.089 157.812 485.244 163.513 488.948C164.844 489.76 166.216 490.504 167.622 491.177V487.414C167.618 488.036 167.553 488.735 167.546 489.414Z" fill="#74A3D7"/>
<path d="M92.7845 476.253L76.4396 498.031C75.8429 498.827 77.1825 499.596 77.7733 498.814L106.865 460.044L135.957 421.271L151.733 400.249C150.988 400.384 150.247 400.526 149.504 400.661L121.876 437.48L92.7845 476.253Z" fill="#74A3D7"/>
<path d="M107.532 488.034C101.78 495.078 95.92 502.028 89.953 508.883C89.3036 509.63 90.3898 510.73 91.045 509.976C101.705 497.715 112.028 485.168 122.013 472.336C131.998 459.504 141.625 446.4 150.892 433.025C156.104 425.505 161.2 417.905 166.18 410.226C166.723 409.386 165.387 408.609 164.847 409.443C156.033 423.034 146.854 436.377 137.311 449.472C127.74 462.598 117.814 475.452 107.532 488.034Z" fill="#74A3D7"/>
<path d="M162.064 427.425C154.667 439.344 146.737 450.902 138.274 462.101C129.824 473.273 120.863 484.035 111.389 494.386C106.052 500.222 100.565 505.915 94.9295 511.466C94.2197 512.166 95.3195 513.26 96.0215 512.561C106.043 502.685 115.598 492.359 124.686 481.583C133.724 470.85 142.257 459.716 150.286 448.181C154.836 441.641 159.212 434.983 163.413 428.207C163.924 427.358 162.589 426.58 162.064 427.425Z" fill="#74A3D7"/>
<path d="M106.349 354.985L103.775 339.977C103.422 341.454 102.728 342.826 101.75 343.983C100.771 345.141 99.5349 346.052 98.1411 346.642C94.6311 348.105 91.0353 346.865 87.8685 345.116C88.8461 349.688 89.8211 354.26 90.7935 358.832C95.5848 356.544 100.777 355.222 106.076 354.94C106.169 354.938 106.261 354.953 106.349 354.985V354.985Z" fill="#FCAFB7"/>
<path d="M97.289 345.323C98.5834 344.834 99.7309 344.019 100.621 342.957C101.512 341.895 102.116 340.621 102.375 339.257L87.5877 343.171C90.4952 344.934 93.9077 346.554 97.289 345.323Z" fill="#FCAFB7"/>
<path d="M130.852 404.457C131.4 404.33 131.946 404.193 132.494 404.066L133.048 403.939C133.592 403.814 134.136 403.683 134.682 403.567C139.608 402.512 144.551 401.565 149.502 400.658C150.245 400.523 150.986 400.38 151.731 400.245C154.995 399.658 158.262 399.085 161.532 398.527L163.646 398.165L167.616 397.484V300.997C160.05 297.021 151.367 295.725 142.976 297.32C141.191 297.629 139.438 298.046 137.699 298.512C132.841 299.882 128.085 301.591 123.464 303.624C122.982 303.82 122.501 304.031 122.021 304.239C117.468 306.196 112.936 308.248 108.326 310.027C106.117 310.878 103.841 311.662 101.536 312.341C101.043 312.488 100.545 312.623 100.048 312.758C90.7799 315.28 81.0201 315.961 72.368 312.146C71.031 311.547 69.7382 310.853 68.4992 310.07C57.8112 303.417 51.5459 290.914 44.2763 280.256C42.8714 278.081 41.2191 276.078 39.3525 274.286C33.5025 276.918 27.6525 279.569 21.6504 281.772C21.6095 282.078 21.5666 282.385 21.5334 282.686C18.1892 313.576 35.5344 345.681 63.1542 359.728C63.8016 360.057 64.4568 360.38 65.1042 360.706C69.7296 362.972 74.511 365.23 77.4477 369.402C80.48 373.706 80.9577 379.259 81.3477 384.517C81.6324 388.445 81.9178 392.371 82.2038 396.296L83.1788 409.641C83.2737 411.954 83.6737 414.244 84.3683 416.452C88.3658 415.589 92.3379 414.618 96.3003 413.591C96.8054 413.46 97.3085 413.323 97.8116 413.19C108.825 410.29 119.767 407.021 130.852 404.457ZM90.7116 360.581C90.5947 360.638 90.4657 360.666 90.3358 360.662C90.2058 360.659 90.0786 360.624 89.9651 360.56C89.8515 360.496 89.755 360.406 89.6836 360.297C89.6123 360.188 89.5682 360.063 89.5553 359.933C89.472 359.84 89.4148 359.726 89.3895 359.603L86.0745 344.061L86.0453 344.043C85.9411 343.982 85.8542 343.895 85.7928 343.791C85.7314 343.686 85.6975 343.568 85.6943 343.447C85.5674 343.368 85.4655 343.255 85.4006 343.121C85.3357 342.987 85.3105 342.836 85.3279 342.688C85.3453 342.54 85.4047 342.399 85.499 342.284C85.5933 342.168 85.7185 342.082 85.86 342.036C85.9707 341.859 86.1441 341.731 86.3453 341.677C86.5465 341.623 86.7605 341.648 86.9442 341.746L102.739 337.563C102.832 337.485 102.941 337.429 103.058 337.397C103.175 337.366 103.297 337.361 103.416 337.383L104.028 337.22C104.13 337.192 104.237 337.185 104.342 337.202C104.446 337.218 104.546 337.257 104.634 337.315C104.723 337.374 104.798 337.451 104.854 337.541C104.91 337.63 104.946 337.732 104.96 337.837C104.97 337.858 104.978 337.879 104.986 337.901C105.992 343.771 106.999 349.641 108.006 355.511C108.152 356.366 107.031 356.791 106.641 356.228C106.573 356.309 106.488 356.375 106.393 356.421C106.297 356.467 106.193 356.492 106.087 356.496C100.735 356.773 95.4991 358.164 90.7116 360.581V360.581Z" fill="#F58AB4"/>
<path d="M106.629 356.224C107.019 356.787 108.145 356.363 107.994 355.507C106.986 349.637 105.979 343.767 104.974 337.897C104.967 337.876 104.958 337.854 104.949 337.833C104.935 337.728 104.898 337.627 104.842 337.537C104.786 337.447 104.711 337.37 104.623 337.311C104.534 337.253 104.434 337.214 104.33 337.198C104.225 337.182 104.118 337.188 104.016 337.217L103.404 337.379C103.285 337.357 103.163 337.363 103.046 337.394C102.929 337.425 102.82 337.481 102.727 337.559L86.9325 341.742C86.7488 341.644 86.5347 341.619 86.3336 341.673C86.1324 341.727 85.959 341.855 85.8483 342.032C85.7068 342.078 85.5815 342.164 85.4872 342.28C85.393 342.396 85.3336 342.536 85.3162 342.684C85.2987 342.833 85.324 342.983 85.3889 343.117C85.4538 343.252 85.5557 343.365 85.6825 343.443C85.6857 343.564 85.7196 343.682 85.781 343.787C85.8425 343.891 85.9293 343.978 86.0335 344.039L86.0628 344.057L89.3778 359.599C89.4031 359.722 89.4603 359.836 89.5435 359.93C89.5565 360.059 89.6005 360.184 89.6719 360.293C89.7432 360.402 89.8398 360.492 89.9533 360.556C90.0669 360.62 90.194 360.655 90.324 360.658C90.454 360.662 90.5829 360.634 90.6999 360.577C95.4835 358.161 100.716 356.768 106.064 356.488C106.171 356.487 106.278 356.463 106.375 356.417C106.473 356.372 106.559 356.306 106.629 356.224V356.224ZM102.375 339.259C102.116 340.623 101.512 341.897 100.621 342.959C99.7309 344.021 98.5834 344.836 97.2889 345.325C93.9076 346.556 90.4951 344.934 87.5877 343.173L102.375 339.259ZM87.8685 345.116C91.0353 346.865 94.6233 348.105 98.1411 346.642C99.5349 346.052 100.771 345.141 101.749 343.983C102.728 342.826 103.422 341.454 103.775 339.977L106.349 354.985C106.261 354.954 106.168 354.939 106.076 354.942C100.78 355.224 95.5903 356.546 90.8013 358.832C89.8224 354.261 88.8448 349.689 87.8685 345.116V345.116Z" fill="white"/>
<path d="M412.095 407.733C406.186 402.359 401.083 396.156 396.945 389.315V419.577C402.32 416.065 407.388 412.103 412.095 407.733V407.733Z" fill="#FCAFB7"/>
<path d="M502.38 273.844C498.946 276.986 495.887 280.516 493.264 284.365C487.488 292.724 481.174 300.997 472.724 306.61C464.275 312.224 453.24 314.828 443.821 311.066C436.055 307.962 430.431 301.102 423.233 296.833C415.568 292.33 406.481 290.923 397.819 292.898C397.523 292.966 397.234 293.06 396.943 293.148V386.309C396.99 386.391 397.035 386.474 397.084 386.554C398.613 389.184 400.265 391.734 402.041 394.206C408.955 404.272 418.504 412.227 429.635 417.195C440.199 421.626 452.02 421.993 462.836 418.226C468.131 416.351 472.906 413.239 476.767 409.147C480.362 405.256 483.642 398.75 481.096 393.494C478.529 388.186 471.931 387.667 466.785 387.135C461.059 386.641 455.469 385.111 450.286 382.619C439.589 377.094 431.007 368.183 425.87 357.266C420.269 344.948 417.693 331.461 418.356 317.937C418.384 317.752 418.478 317.583 418.619 317.461C418.761 317.339 418.941 317.272 419.128 317.272C419.314 317.272 419.495 317.339 419.636 317.461C419.778 317.583 419.871 317.752 419.899 317.937C419.809 321.334 419.862 324.735 420.094 328.126C421.018 341.554 424.815 355.114 432.944 365.993C434.576 368.171 436.37 370.22 438.311 372.125C442.19 364.018 445.071 355.466 446.891 346.659C462.545 349.007 478.676 342.83 490.766 332.585C502.856 322.34 511.319 308.381 517.676 293.843C518.261 292.497 518.815 291.123 519.327 289.744C523.163 279.37 509.702 267.228 502.38 273.844ZM461.744 394.66C462.348 397.694 462.954 400.73 463.559 403.767C463.754 404.745 462.265 405.154 462.07 404.178L460.256 395.071C460.065 394.095 461.549 393.682 461.744 394.66ZM437.64 411.775L444.9 401.757C445.485 400.959 446.817 401.732 446.232 402.54L438.972 412.556C438.399 413.354 437.055 412.581 437.64 411.775ZM418.579 396.502L422.284 383.771C422.359 383.6 422.494 383.461 422.663 383.38C422.832 383.3 423.024 383.283 423.204 383.333C423.385 383.383 423.541 383.496 423.645 383.652C423.749 383.808 423.794 383.996 423.772 384.182L420.078 396.912C420.006 397.09 419.872 397.234 419.701 397.319C419.53 397.403 419.334 397.422 419.15 397.372C418.966 397.321 418.807 397.205 418.703 397.044C418.598 396.884 418.556 396.691 418.585 396.502H418.579ZM414.484 367.985L405.5 361.483C404.701 360.906 405.471 359.564 406.28 360.147L415.264 366.647C416.071 367.226 415.301 368.568 414.493 367.985H414.484ZM437.227 323.353C436.621 324.568 436.016 325.782 435.411 326.997C434.967 327.889 433.635 327.102 434.077 326.214C434.683 325.001 435.288 323.787 435.893 322.573C436.347 321.677 437.679 322.459 437.236 323.353H437.227ZM462.286 327.237L453.22 333.612C452.405 334.186 451.635 332.841 452.44 332.274L461.516 325.901C462.333 325.328 463.105 326.67 462.296 327.237H462.286ZM475.673 329.507L472.943 322.223C472.592 321.285 474.085 320.886 474.431 321.81C475.341 324.237 476.251 326.665 477.161 329.094C477.521 330.032 476.028 330.431 475.683 329.503L475.673 329.507ZM498.182 314.754L489.108 313.827C488.133 313.727 488.12 312.177 489.108 312.279L498.182 313.206C499.17 313.306 499.178 314.856 498.191 314.754H498.182ZM505.502 293.107L504.591 288.554C504.396 287.576 505.884 287.167 506.081 288.143L506.992 292.695C507.196 293.671 505.707 294.088 505.512 293.109L505.502 293.107Z" fill="#F58AB4"/>
<path d="M293.582 178.977C288.516 177.107 282.998 176.854 277.783 178.252C272.569 179.65 267.912 182.631 264.45 186.787C260.989 190.943 258.892 196.07 258.446 201.468C258 206.865 259.227 212.269 261.96 216.94C264.692 221.611 268.796 225.32 273.71 227.561C278.625 229.801 284.109 230.463 289.412 229.456C294.716 228.449 299.579 225.822 303.338 221.935C307.096 218.047 309.566 213.09 310.408 207.74C310.616 206.384 310.723 205.015 310.73 203.643C310.692 198.274 309.033 193.043 305.971 188.639C302.91 184.236 298.59 180.867 293.582 178.977V178.977Z" fill="black"/>
<path d="M326.49 230.334C324.496 227.119 322.095 224.177 319.347 221.581C311.359 212.921 302.713 204.897 293.486 197.581C286.487 192.175 278.679 187.916 270.351 184.962C261.51 192.169 260.406 204.725 264.985 214.948C268.7 215.629 272.319 218.828 275.54 220.818C280.294 223.951 284.577 227.75 288.258 232.1C291.824 236.481 295.73 240.571 299.941 244.332C304.218 248.118 309.696 250.257 315.398 250.37C321.053 250.196 326.802 246.652 328.302 241.211C329.135 237.487 328.485 233.583 326.49 230.334V230.334Z" fill="#84D0AB"/>
<path d="M326.135 266.264C337.339 260.841 349.16 256.81 361.337 254.258C363.944 253.872 366.503 253.209 368.971 252.282C370.005 251.934 370.876 251.219 371.422 250.272C371.868 249.332 372.062 248.292 371.984 247.254C371.907 246.215 371.56 245.216 370.979 244.353C367.469 239.221 358.959 238.419 351.624 239.176C341.084 240.262 321.1 251.129 321.1 251.129L326.135 266.264Z" fill="black"/>
<path d="M250.861 387.663C249.496 385.282 246.751 383.936 244.5 382.55C241.903 380.95 239.29 379.373 236.622 377.89C231.383 374.838 225.77 372.484 219.924 370.889C218.547 370.334 217.049 370.152 215.58 370.362C215.051 370.543 214.58 370.864 214.219 371.292C213.858 371.72 213.62 372.239 213.53 372.793C213.513 373.415 213.625 374.034 213.86 374.609C214.095 375.185 214.448 375.706 214.895 376.137C214.95 376.209 215.024 376.264 215.09 376.332C214.462 376.223 213.82 376.21 213.187 376.295C212.331 376.379 211.516 376.708 210.841 377.243C210.166 377.778 209.658 378.497 209.379 379.314C209.198 380.159 209.237 381.036 209.494 381.86C209.751 382.685 210.215 383.429 210.843 384.02C211.361 384.516 211.954 384.928 212.598 385.241C211.526 385.487 210.574 386.106 209.913 386.988C209.36 387.753 209.054 388.67 209.036 389.614C209.019 390.559 209.291 391.486 209.816 392.271C211.329 394.435 214.172 395.089 216.588 395.75L234.723 400.714L240.271 402.233C241.418 402.535 242.625 402.522 243.764 402.193C244.904 401.864 245.934 401.232 246.745 400.364C247.546 399.343 248.219 398.225 248.745 397.038C249.379 395.836 249.953 394.568 250.66 393.406C251.16 392.722 251.49 391.928 251.622 391.089C251.732 389.896 251.466 388.697 250.861 387.663V387.663ZM249.364 392.555C248.866 393.353 248.474 394.242 248.036 395.073C247.482 396.124 246.948 397.188 246.374 398.227C245.844 399.227 244.995 400.018 243.962 400.474C242.93 400.931 241.775 401.026 240.682 400.744L228.029 397.28C223.754 396.106 219.466 394.985 215.203 393.77C213.185 393.195 210.278 391.931 210.578 389.362C210.933 386.337 214.398 386.391 216.695 386.591C217.567 386.667 217.737 385.272 216.9 385.071C214.519 384.484 210.245 383.31 210.8 379.966C210.983 379.319 211.377 378.752 211.918 378.356C212.459 377.96 213.116 377.756 213.786 377.778C215.41 377.845 216.993 378.316 218.392 379.148C219.277 379.574 220.043 378.318 219.172 377.811C218.148 377.223 217.226 376.472 216.442 375.589C215.839 374.91 214.773 373.789 215.104 372.785C215.494 371.589 216.664 371.748 217.639 371.947C218.895 372.208 220.138 372.519 221.369 372.881C226.256 374.4 230.963 376.446 235.409 378.983C237.703 380.246 239.955 381.582 242.19 382.946C244.397 384.094 246.48 385.472 248.402 387.055C249.202 387.756 249.767 388.687 250.021 389.722C250.124 390.214 250.119 390.723 250.005 391.213C249.892 391.703 249.673 392.163 249.364 392.559V392.555Z" fill="black"/>
<path d="M274.585 327.547C274.378 326.568 272.89 326.985 273.097 327.96C274.512 334.652 277.301 340.975 281.287 346.526C281.872 347.329 283.202 346.556 282.621 345.744C278.708 340.306 275.971 334.108 274.585 327.547V327.547Z" fill="black"/>
<path d="M312.922 352.336C306.26 336.771 303.671 319.756 305.403 302.906C305.408 302.825 305.401 302.744 305.379 302.666C306.254 302.689 307.124 302.536 307.939 302.217C308.755 301.898 309.498 301.418 310.126 300.807C310.907 299.941 311.492 298.916 311.841 297.801C312.19 296.687 312.293 295.51 312.145 294.351C311.997 293.193 311.6 292.08 310.982 291.09C310.364 290.1 309.54 289.256 308.566 288.617C308.199 288.38 307.815 288.171 307.417 287.991C307.633 287.435 307.734 286.841 307.715 286.245L307.762 280.111C307.873 277.804 307.702 275.493 307.255 273.228C306.793 270.944 305.515 268.908 303.661 267.504C301.301 266.27 298.712 265.537 296.056 265.352C295.415 265.231 294.613 264.871 294.691 264.219C294.732 263.896 294.998 263.644 295.081 263.329C295.276 262.622 294.557 262.02 293.911 261.67C288.926 258.984 283.134 258.218 277.625 259.517C275.923 260.181 274.064 260.322 272.282 259.922C270.961 259.206 269.801 258.225 268.873 257.04C265.877 254.527 262.027 253.277 258.131 253.551C243.375 253.412 245.152 264.16 244.871 267.264C244.745 270.385 245.171 273.504 246.131 276.476C246.449 278.378 247.387 280.12 248.798 281.43C248.894 281.5 249.005 281.532 249.102 281.592C248.753 285.897 248.213 290.202 247.763 294.491C246.853 300.283 246.903 306.186 247.911 311.962C248.442 314.495 249.554 316.869 251.159 318.896C252.763 320.922 254.817 322.546 257.156 323.637C264.888 327.236 274.031 326.572 282.278 325.905C285.031 325.799 287.749 325.244 290.325 324.261C292.666 323.222 294.693 321.582 296.201 319.507C297.864 317.221 299.044 314.618 299.668 311.858C300.336 310.586 300.62 309.146 300.485 307.714V306.642C300.578 305.552 300.645 304.462 300.67 303.382C300.692 302.54 300.67 301.699 300.67 300.858C301.597 301.716 302.746 302.296 303.985 302.533C303.912 302.64 303.868 302.764 303.854 302.893C302.102 320.017 304.764 337.307 311.584 353.103C311.982 354.03 313.312 353.242 312.922 352.336ZM296.684 315.746C295.607 318.088 293.956 320.119 291.885 321.647C289.593 323.113 286.972 323.982 284.261 324.177C279.325 324.793 274.347 324.99 269.378 324.764C265.845 324.649 262.352 323.978 259.026 322.776C256.734 321.934 254.68 320.546 253.04 318.734C251.399 316.921 250.22 314.736 249.604 312.367C248.477 306.971 248.327 301.417 249.161 295.968C249.606 291.391 250.218 286.826 250.612 282.244C251.807 282.518 253.039 282.6 254.26 282.488C258.61 282.201 262.897 281.293 266.992 279.792C267.857 279.409 268.779 279.173 269.722 279.094C270.195 279.061 270.668 279.16 271.089 279.38C271.51 279.6 271.862 279.932 272.107 280.34C272.297 280.915 272.443 281.504 272.545 282.101C273.146 284.001 275.498 284.627 277.481 284.721C281.851 284.92 286.201 284.013 290.13 282.083C290.3 281.968 290.491 281.889 290.693 281.853C290.894 281.816 291.101 281.822 291.3 281.87C291.596 282.041 291.813 282.322 291.903 282.653C292.355 284.168 292.632 285.731 292.728 287.31C292.792 287.777 292.881 288.241 292.993 288.699C293.005 295.915 293.017 303.131 293.03 310.348C292.964 310.838 293.008 311.338 293.157 311.81C293.307 312.282 293.559 312.715 293.896 313.077C294.433 313.446 295.055 313.672 295.703 313.733C296.352 313.793 297.005 313.688 297.601 313.425C297.343 314.218 297.037 314.995 296.684 315.75V315.746ZM300.569 298.136C300.538 298.064 300.495 297.998 300.442 297.94C300.426 294.932 300.412 291.924 300.399 288.914C300.479 288.961 300.568 288.991 300.66 289.003C300.752 289.015 300.846 289.009 300.935 288.985C305.877 287.525 311.756 291.149 310.549 296.758C310.362 297.871 309.826 298.895 309.018 299.68C308.211 300.466 307.175 300.972 306.061 301.124C304.946 301.277 303.813 301.069 302.825 300.53C301.837 299.991 301.046 299.15 300.569 298.128V298.136Z" fill="black"/>
<path d="M233.292 376.178C242.538 380.023 252.639 381.324 262.553 379.946C263.471 368.83 266.718 358.033 272.081 348.262C268.375 350.969 264.232 353.014 259.833 354.308C252.569 356.197 245.127 357.312 237.63 357.634C236.185 357.75 234.723 357.877 233.292 358.116V347.524C233.292 347.284 233.307 347.027 233.313 346.769H272.998C273.333 346.247 273.67 345.726 274.023 345.221H244.888C240.832 345.221 236.745 345.073 232.691 345.221C232.635 345.221 232.576 345.221 232.519 345.221C232.313 345.221 232.114 345.304 231.968 345.451C231.822 345.597 231.739 345.796 231.739 346.004V376.213C232.258 376.467 232.769 376.743 233.284 377.009L233.292 376.178Z" fill="black"/>
<path d="M332.176 445.24C332.176 445.479 332.161 445.737 332.153 445.993H282.882C283.795 444.757 284.607 443.448 285.31 442.08C282.724 441.285 280.264 440.125 278.003 438.636C270.626 433.635 266.888 425.165 264.743 416.767C254.026 417.782 243.468 420.081 233.296 423.615V399.527L231.751 399.106V434.357C231.751 438.427 231.603 442.528 231.751 446.594C231.751 446.653 231.751 446.71 231.751 446.768C231.754 446.974 231.837 447.171 231.983 447.315C232.129 447.46 232.326 447.541 232.531 447.541H320.591C324.647 447.541 328.734 447.69 332.788 447.541C332.845 447.541 332.904 447.541 332.96 447.541C333.165 447.541 333.362 447.46 333.508 447.315C333.654 447.171 333.738 446.974 333.74 446.768V442.428C333.236 442.628 332.721 442.817 332.196 442.996L332.176 445.24Z" fill="black"/>
<path d="M306.933 389.976C306.534 389.99 306.155 390.16 305.877 390.449C305.599 390.737 305.444 391.123 305.444 391.525C305.444 391.926 305.599 392.312 305.877 392.601C306.155 392.89 306.534 393.059 306.933 393.073C307.333 393.059 307.712 392.89 307.99 392.601C308.268 392.312 308.423 391.926 308.423 391.525C308.423 391.123 308.268 390.737 307.99 390.449C307.712 390.16 307.333 389.99 306.933 389.976V389.976Z" fill="white"/>
<path d="M296.045 379.05C295.645 379.064 295.266 379.234 294.988 379.523C294.71 379.811 294.555 380.197 294.555 380.599C294.555 381 294.71 381.386 294.988 381.675C295.266 381.964 295.645 382.133 296.045 382.147C296.444 382.133 296.823 381.964 297.101 381.675C297.379 381.386 297.534 381 297.534 380.599C297.534 380.197 297.379 379.811 297.101 379.523C296.823 379.234 296.444 379.064 296.045 379.05Z" fill="white"/>
<path d="M262.275 401.472C262.433 401.533 262.6 401.568 262.77 401.573C263.17 401.559 263.548 401.39 263.826 401.101C264.104 400.812 264.259 400.426 264.259 400.025C264.259 399.623 264.104 399.237 263.826 398.948C263.548 398.66 263.17 398.49 262.77 398.476C262.533 398.474 262.298 398.528 262.085 398.632C261.828 398.779 261.616 398.995 261.476 399.257C261.335 399.519 261.271 399.815 261.291 400.112C261.311 400.408 261.414 400.693 261.588 400.934C261.762 401.174 262 401.361 262.275 401.472V401.472Z" fill="white"/>
<path d="M286.363 406.974C285.963 406.988 285.584 407.157 285.306 407.446C285.029 407.735 284.873 408.121 284.873 408.522C284.873 408.924 285.029 409.31 285.306 409.599C285.584 409.887 285.963 410.057 286.363 410.071C286.763 410.057 287.141 409.887 287.419 409.599C287.697 409.31 287.852 408.924 287.852 408.522C287.852 408.121 287.697 407.735 287.419 407.446C287.141 407.157 286.763 406.988 286.363 406.974V406.974Z" fill="white"/>
<path d="M296.655 393.619C296.255 393.634 295.876 393.803 295.599 394.092C295.321 394.381 295.165 394.767 295.165 395.168C295.165 395.57 295.321 395.955 295.599 396.244C295.876 396.533 296.255 396.703 296.655 396.717C297.055 396.703 297.434 396.533 297.711 396.244C297.989 395.955 298.144 395.57 298.144 395.168C298.144 394.767 297.989 394.381 297.711 394.092C297.434 393.803 297.055 393.634 296.655 393.619V393.619Z" fill="white"/>
<path d="M351.965 390.291C351.553 375.209 347.542 360.041 338.974 348.319C330.406 336.596 316.98 328.707 303.032 329.192C297.261 329.293 291.603 330.806 286.547 333.599C281.492 336.392 277.193 340.382 274.023 345.221C273.67 345.726 273.333 346.247 272.998 346.769C272.684 347.26 272.381 347.759 272.081 348.262C266.718 358.033 263.472 368.83 262.553 379.946C262.401 381.386 262.273 382.824 262.175 384.261C269.405 386.988 276.302 390.533 282.732 394.827C282.892 391.827 283.233 388.84 283.756 385.883C286.007 373.699 291.191 362.251 298.857 352.535C298.922 352.454 299.005 352.387 299.098 352.34C299.124 352.33 299.15 352.323 299.176 352.318C299.234 352.295 299.296 352.282 299.358 352.279C299.394 352.282 299.43 352.289 299.465 352.3C299.512 352.306 299.559 352.317 299.603 352.334C299.655 352.36 299.704 352.391 299.75 352.428C299.772 352.442 299.793 352.457 299.814 352.473C299.876 352.531 299.931 352.596 299.976 352.668V352.668C300.056 352.79 300.103 352.932 300.11 353.078C300.117 353.223 300.085 353.369 300.017 353.498C299.998 353.546 299.974 353.593 299.947 353.637C297.804 356.367 295.854 359.244 294.11 362.246C288.095 372.565 284.684 384.203 284.175 396.147C284.173 396.283 284.135 396.415 284.067 396.531C283.998 396.648 283.901 396.744 283.784 396.812C283.667 396.879 283.535 396.915 283.4 396.916C283.265 396.917 283.132 396.883 283.015 396.817C281.65 395.967 280.296 395.12 278.93 394.287C273.623 390.902 267.972 388.092 262.074 385.906C255.603 383.446 248.564 382.903 241.794 384.341C239.064 384.745 236.509 385.935 234.438 387.765C233.991 388.254 233.605 388.795 233.288 389.377C232.559 390.653 232.164 392.094 232.141 393.565C232.136 395.07 232.532 396.55 233.288 397.85C233.6 398.408 233.977 398.927 234.411 399.395C235.453 400.409 236.578 401.332 237.775 402.156C238.964 403.045 240.18 403.896 241.423 404.71C248.433 409.278 256.14 412.667 264.238 414.744C265.603 415.098 266.992 415.405 268.378 415.691C270.843 416.203 273.333 416.587 275.837 416.843C276.989 416.957 278.155 417.025 279.322 417.094C284.324 417.431 289.35 417.177 294.294 416.338C297.474 415.85 300.529 414.749 303.293 413.096C305.831 411.39 307.975 409.157 309.58 406.549C313.057 400.929 315.833 394.902 317.846 388.603C320.039 382.187 321.582 375.566 322.452 368.84C322.474 368.697 322.533 368.561 322.625 368.449V368.449C322.721 368.329 322.846 368.237 322.989 368.181C323.131 368.125 323.285 368.108 323.436 368.13C323.47 368.133 323.504 368.138 323.538 368.146C323.576 368.156 323.613 368.171 323.649 368.189C323.692 368.208 323.734 368.232 323.772 368.261C323.798 368.28 323.822 368.301 323.844 368.324C323.882 368.367 323.913 368.417 323.936 368.47C323.947 368.496 323.961 368.515 323.971 368.543C323.999 368.641 324.007 368.744 323.994 368.846C323.774 370.554 323.52 372.257 323.214 373.953C321.952 381.034 319.946 387.962 317.23 394.619C315.937 397.818 314.478 400.947 312.86 403.994C311.422 406.847 309.571 409.47 307.366 411.779C302.591 416.54 295.906 417.96 289.426 418.506C286.861 418.705 284.287 418.771 281.714 418.702C277.818 418.629 273.933 418.264 270.092 417.608C268.577 417.346 267.076 417.021 265.58 416.663C265.299 416.692 265.02 416.718 264.739 416.749C266.896 425.147 270.626 433.618 277.999 438.619C280.26 440.108 282.72 441.267 285.306 442.063C290.97 443.652 296.803 444.562 302.681 444.773C310.227 445.602 317.842 445.558 325.379 444.643C327.685 444.28 329.957 443.725 332.172 442.986C332.692 442.809 333.207 442.62 333.717 442.419C336.949 441.311 339.857 439.414 342.176 436.898C344.496 434.382 346.155 431.326 347.004 428.006C350.428 415.733 352.099 403.035 351.965 390.291V390.291ZM280.919 377.291C280.519 377.277 280.14 377.107 279.862 376.818C279.584 376.53 279.429 376.144 279.429 375.742C279.429 375.341 279.584 374.955 279.862 374.666C280.14 374.377 280.519 374.208 280.919 374.194C281.318 374.208 281.697 374.377 281.975 374.666C282.253 374.955 282.408 375.341 282.408 375.742C282.408 376.144 282.253 376.53 281.975 376.818C281.697 377.107 281.318 377.277 280.919 377.291V377.291ZM286.363 350.579C285.963 350.564 285.584 350.395 285.307 350.106C285.029 349.817 284.873 349.431 284.873 349.03C284.873 348.628 285.029 348.243 285.307 347.954C285.584 347.665 285.963 347.495 286.363 347.481C286.763 347.495 287.142 347.665 287.419 347.954C287.697 348.243 287.852 348.628 287.852 349.03C287.852 349.431 287.697 349.817 287.419 350.106C287.142 350.395 286.763 350.564 286.363 350.579V350.579ZM316.003 365.148C315.735 365.143 315.474 365.069 315.244 364.931C315.015 364.793 314.825 364.597 314.695 364.363C314.565 364.128 314.498 363.863 314.502 363.595C314.505 363.327 314.579 363.064 314.716 362.833C314.745 362.774 314.778 362.717 314.813 362.661C314.864 362.591 314.922 362.525 314.985 362.465C315.114 362.352 315.257 362.256 315.41 362.178C315.596 362.1 315.794 362.059 315.995 362.056C316.2 362.057 316.403 362.099 316.592 362.18C316.642 362.202 316.69 362.228 316.736 362.258C316.848 362.317 316.95 362.394 317.038 362.485C317.166 362.606 317.265 362.756 317.327 362.921C317.35 362.976 317.382 363.025 317.401 363.082C317.441 363.221 317.464 363.364 317.469 363.508C317.474 363.639 317.464 363.771 317.438 363.9C317.438 363.937 317.438 363.972 317.421 364.009C317.39 364.132 317.346 364.251 317.288 364.363L317.247 364.434C317.127 364.656 316.947 364.84 316.728 364.966C316.51 365.092 316.261 365.155 316.009 365.148H316.003ZM320.25 348.759C320.012 348.759 319.777 348.702 319.564 348.593C319.352 348.483 319.169 348.325 319.031 348.13C318.892 347.935 318.801 347.711 318.766 347.474C318.732 347.237 318.754 346.995 318.83 346.769C318.909 346.451 319.091 346.168 319.349 345.966C319.606 345.764 319.923 345.654 320.25 345.654C320.577 345.654 320.894 345.764 321.151 345.966C321.409 346.168 321.591 346.451 321.67 346.769C321.747 346.995 321.769 347.237 321.734 347.474C321.699 347.711 321.608 347.935 321.47 348.13C321.331 348.325 321.148 348.483 320.936 348.593C320.724 348.702 320.489 348.759 320.25 348.759V348.759ZM329.325 407.036C328.926 407.022 328.547 406.853 328.269 406.564C327.991 406.275 327.836 405.889 327.836 405.488C327.836 405.086 327.991 404.7 328.269 404.411C328.547 404.123 328.926 403.953 329.325 403.939C329.725 403.954 330.104 404.124 330.381 404.413C330.658 404.703 330.813 405.089 330.812 405.49C330.811 405.892 330.655 406.277 330.377 406.566C330.098 406.854 329.719 407.023 329.32 407.036H329.325ZM333.727 386.362C333.671 386.376 333.615 386.388 333.559 386.395C333.259 386.408 332.963 386.323 332.715 386.153C332.467 385.984 332.28 385.739 332.182 385.454C332.04 385.062 332.04 384.633 332.182 384.241C332.281 383.957 332.467 383.711 332.715 383.542C332.963 383.372 333.259 383.286 333.559 383.298C333.615 383.307 333.671 383.318 333.727 383.333C334.089 383.386 334.421 383.569 334.661 383.848C334.9 384.126 335.032 384.482 335.031 384.85C335.03 385.218 334.897 385.574 334.657 385.851C334.416 386.129 334.084 386.31 333.721 386.362H333.727ZM337.794 356.65C337.394 356.636 337.016 356.466 336.738 356.178C336.46 355.889 336.305 355.503 336.305 355.101C336.305 354.7 336.46 354.314 336.738 354.025C337.016 353.736 337.394 353.567 337.794 353.553C338.194 353.568 338.572 353.738 338.85 354.027C339.127 354.317 339.282 354.703 339.281 355.104C339.28 355.506 339.124 355.891 338.846 356.18C338.567 356.468 338.188 356.637 337.788 356.65H337.794ZM341.425 417.964C341.015 417.964 340.623 417.801 340.333 417.51C340.043 417.22 339.881 416.826 339.881 416.415C339.881 416.004 340.043 415.609 340.333 415.319C340.623 415.028 341.015 414.865 341.425 414.865C341.835 414.866 342.227 415.03 342.516 415.321C342.805 415.612 342.967 416.006 342.967 416.417C342.966 416.828 342.802 417.222 342.512 417.512C342.222 417.803 341.829 417.965 341.419 417.964H341.425ZM343.239 390.039C342.839 390.024 342.46 389.855 342.182 389.566C341.904 389.277 341.749 388.891 341.749 388.49C341.749 388.089 341.904 387.703 342.182 387.414C342.46 387.125 342.839 386.956 343.239 386.941C343.638 386.956 344.017 387.126 344.294 387.416C344.572 387.705 344.726 388.091 344.725 388.493C344.725 388.894 344.569 389.28 344.29 389.568C344.012 389.857 343.633 390.025 343.233 390.039H343.239Z" fill="#F9D476"/>
<path d="M259.979 437.012C249.596 442.064 240.376 450.329 237.141 460.909C234.532 469.448 236.01 478.543 237.783 487.23C239.807 497.162 242.19 507.024 244.571 516.882C245.289 520.905 246.744 524.76 248.861 528.252C250.006 530.031 251.583 531.49 253.442 532.493C255.302 533.496 257.385 534.01 259.496 533.987C267.101 533.474 270.829 524.986 272.128 517.881C274.906 502.677 274.592 487.067 271.204 471.988C290.032 470.558 308.398 465.434 325.26 456.906C332.888 453.03 340.871 447.404 341.852 439.296C342.975 430.007 333.701 422.02 323.967 420.453C314.232 418.886 270.365 431.962 259.979 437.012Z" fill="#74A3D7"/>
<path d="M261.013 288.253C257.914 286.601 253.593 285.557 250.992 288.677C250.358 289.437 251.444 290.538 252.084 289.773C254.229 287.208 257.723 288.251 260.235 289.589C261.112 290.057 261.892 288.72 261.013 288.253Z" fill="black"/>
<path d="M280.334 290.619C279.409 290.961 279.809 292.458 280.743 292.111C282.163 291.553 283.724 291.469 285.195 291.873C286.666 292.276 287.968 293.145 288.908 294.35C289.506 295.133 290.846 294.35 290.24 293.567C289.127 292.069 287.561 290.972 285.775 290.44C283.99 289.909 282.081 289.971 280.334 290.619V290.619Z" fill="black"/>
<path d="M270.65 308.176C271.592 308.497 271.997 307.002 271.059 306.683C269.304 306.096 267.462 306.372 265.697 305.923C264.992 305.78 264.342 305.441 263.819 304.945C263.528 304.545 263.334 304.082 263.251 303.594C263.168 303.105 263.199 302.604 263.341 302.129C263.915 298.02 264.54 293.912 265.141 289.802C265.283 288.824 263.798 288.405 263.653 289.39L262.598 296.606L262.084 300.128C261.846 301.255 261.715 302.402 261.693 303.554C261.745 304.361 262.037 305.134 262.53 305.773C263.024 306.412 263.697 306.889 264.463 307.141C266.448 307.947 268.643 307.504 270.65 308.176Z" fill="black"/>
<path d="M280.959 309.037C275.926 311.702 270.072 312.352 264.579 310.854C264.394 310.831 264.205 310.875 264.05 310.98C263.894 311.084 263.78 311.241 263.73 311.422C263.68 311.603 263.697 311.797 263.778 311.967C263.858 312.136 263.997 312.271 264.168 312.347C269.725 313.845 275.634 313.296 280.823 310.801C281.687 315.439 276.728 318.646 272.651 319.401C271.676 319.581 272.089 321.074 273.062 320.894C278.233 319.937 284.078 315.415 282.083 309.5C282.05 309.388 281.992 309.285 281.914 309.198C281.836 309.111 281.739 309.043 281.632 308.999C281.524 308.954 281.408 308.935 281.291 308.941C281.175 308.948 281.062 308.98 280.959 309.037V309.037Z" fill="black"/>
<path d="M259.593 292.832C258.996 292.856 258.431 293.112 258.017 293.544C257.603 293.977 257.372 294.554 257.372 295.154C257.372 295.754 257.603 296.331 258.017 296.764C258.431 297.197 258.996 297.452 259.593 297.477C260.191 297.452 260.756 297.197 261.17 296.764C261.584 296.331 261.815 295.754 261.815 295.154C261.815 294.554 261.584 293.977 261.17 293.544C260.756 293.112 260.191 292.856 259.593 292.832V292.832Z" fill="black"/>
<path d="M285.23 294.88C284.633 294.905 284.068 295.16 283.654 295.593C283.24 296.026 283.008 296.603 283.008 297.203C283.008 297.803 283.24 298.379 283.654 298.812C284.068 299.245 284.633 299.501 285.23 299.525C285.827 299.501 286.392 299.245 286.806 298.812C287.22 298.379 287.452 297.803 287.452 297.203C287.452 296.603 287.22 296.026 286.806 295.593C286.392 295.16 285.827 294.905 285.23 294.88V294.88Z" fill="black"/>
<path d="M396.942 339.13V275.499C396.942 273.629 396.971 271.758 396.942 269.888C396.834 268.838 396.396 267.85 395.692 267.066C388.964 256.794 382.237 246.521 375.511 236.249L355.331 205.431L354.184 203.682L353.519 202.664V145.058H328.109V163.854L295.304 113.763L282.947 94.8931C282.877 94.7785 282.779 94.6838 282.662 94.6181C282.546 94.5524 282.414 94.5179 282.281 94.5179C282.147 94.5179 282.015 94.5524 281.899 94.6181C281.782 94.6838 281.684 94.7785 281.615 94.8931C277.208 101.621 272.801 108.35 268.396 115.078C258.084 130.828 247.771 146.577 237.457 162.326L201.979 216.504L174.835 257.956C172.7 261.217 170.564 264.478 168.427 267.739C167.775 268.658 167.486 269.787 167.618 270.907V512.33C167.618 512.538 167.7 512.737 167.846 512.884C167.992 513.031 168.191 513.113 168.398 513.113H386.899C389.855 513.265 392.817 513.265 395.774 513.113C395.903 513.106 396.034 513.106 396.164 513.113C396.37 513.113 396.569 513.031 396.715 512.884C396.861 512.737 396.944 512.538 396.944 512.33V339.13H396.942ZM395.399 272.265V506.04C395.303 507.877 395.303 509.718 395.399 511.555H171.855C170.963 511.478 170.066 511.46 169.172 511.501V275.351C169.036 273.397 169.029 271.436 169.148 269.481C169.176 269.422 169.21 269.367 169.25 269.316C169.478 269.019 169.667 268.678 169.872 268.365C170.725 267.061 171.577 265.756 172.43 264.452L195.665 228.97L230.454 175.84C241.459 159.039 252.462 142.236 263.464 125.431L282.085 96.9965L282.28 96.6834L311.703 141.614L335.778 178.38L352.852 204.455C357.9 212.164 362.948 219.873 367.996 227.582C375.722 239.377 383.446 251.173 391.17 262.969L394.399 267.9C394.652 268.344 394.933 268.773 395.239 269.183C395.32 269.281 395.385 269.389 395.434 269.506C395.469 270.426 395.457 271.346 395.399 272.265V272.265Z" fill="#5B5B5B"/>
<path d="M180.928 250.687V509.296C180.956 509.481 181.049 509.65 181.191 509.772C181.333 509.894 181.513 509.961 181.7 509.961C181.886 509.961 182.067 509.894 182.208 509.772C182.35 509.65 182.443 509.481 182.471 509.296V250.687C182.443 250.502 182.35 250.333 182.208 250.211C182.067 250.088 181.886 250.021 181.7 250.021C181.513 250.021 181.333 250.088 181.191 250.211C181.049 250.333 180.956 250.502 180.928 250.687V250.687Z" fill="#5B5B5B"/>
<path d="M197.264 233.689V505.046C197.291 505.231 197.385 505.4 197.526 505.522C197.668 505.644 197.848 505.711 198.035 505.711C198.221 505.711 198.402 505.644 198.543 505.522C198.685 505.4 198.778 505.231 198.806 505.046V233.689C198.778 233.504 198.685 233.335 198.543 233.213C198.402 233.091 198.221 233.024 198.035 233.024C197.848 233.024 197.668 233.091 197.526 233.213C197.385 233.335 197.291 233.504 197.264 233.689V233.689Z" fill="#5B5B5B"/>
<path d="M216.019 216.083V278.004C216.047 278.189 216.14 278.358 216.281 278.48C216.423 278.602 216.603 278.669 216.79 278.669C216.977 278.669 217.157 278.602 217.298 278.48C217.44 278.358 217.533 278.189 217.561 278.004V216.083C217.533 215.898 217.44 215.729 217.298 215.607C217.157 215.485 216.977 215.418 216.79 215.418C216.603 215.418 216.423 215.485 216.281 215.607C216.14 215.729 216.047 215.898 216.019 216.083Z" fill="#5B5B5B"/>
<path d="M215.412 300.466V353.57C215.439 353.757 215.531 353.928 215.673 354.051C215.815 354.175 215.997 354.242 216.184 354.242C216.372 354.242 216.554 354.175 216.696 354.051C216.837 353.928 216.93 353.757 216.957 353.57V350.856C216.93 350.67 216.837 350.499 216.696 350.376C216.554 350.252 216.372 350.184 216.184 350.184C215.997 350.184 215.815 350.252 215.673 350.376C215.531 350.499 215.439 350.67 215.412 350.856V353.57C215.439 353.757 215.531 353.928 215.673 354.051C215.815 354.175 215.997 354.242 216.184 354.242C216.372 354.242 216.554 354.175 216.696 354.051C216.837 353.928 216.93 353.757 216.957 353.57V300.466C216.93 300.28 216.837 300.109 216.696 299.986C216.554 299.862 216.372 299.794 216.184 299.794C215.997 299.794 215.815 299.862 215.673 299.986C215.531 300.109 215.439 300.28 215.412 300.466V300.466Z" fill="#5B5B5B"/>
<path d="M213.599 401.845V504.429C213.627 504.615 213.72 504.784 213.861 504.906C214.003 505.028 214.183 505.095 214.37 505.095C214.557 505.095 214.737 505.028 214.879 504.906C215.02 504.784 215.113 504.615 215.141 504.429V401.845C215.113 401.66 215.02 401.491 214.879 401.369C214.737 401.247 214.557 401.18 214.37 401.18C214.183 401.18 214.003 401.247 213.861 401.369C213.72 401.491 213.627 401.66 213.599 401.845V401.845Z" fill="#5B5B5B"/>
<path d="M234.167 180.266V227.011C234.194 227.198 234.286 227.368 234.428 227.492C234.57 227.615 234.752 227.683 234.939 227.683C235.127 227.683 235.309 227.615 235.451 227.492C235.592 227.368 235.685 227.198 235.712 227.011V180.266C235.685 180.08 235.592 179.909 235.451 179.786C235.309 179.662 235.127 179.594 234.939 179.594C234.752 179.594 234.57 179.662 234.428 179.786C234.286 179.909 234.194 180.08 234.167 180.266V180.266Z" fill="#5B5B5B"/>
<path d="M234.167 249.476V335.072C234.194 335.259 234.286 335.429 234.428 335.553C234.57 335.676 234.752 335.744 234.939 335.744C235.127 335.744 235.309 335.676 235.451 335.553C235.592 335.429 235.685 335.259 235.712 335.072V249.476C235.685 249.289 235.592 249.118 235.451 248.995C235.309 248.871 235.127 248.803 234.939 248.803C234.752 248.803 234.57 248.871 234.428 248.995C234.286 249.118 234.194 249.289 234.167 249.476V249.476Z" fill="#5B5B5B"/>
<path d="M254.73 151.128V242.794C254.758 242.979 254.851 243.148 254.993 243.27C255.134 243.392 255.315 243.459 255.501 243.459C255.688 243.459 255.868 243.392 256.01 243.27C256.151 243.148 256.245 242.979 256.272 242.794V151.128C256.245 150.943 256.151 150.774 256.01 150.651C255.868 150.529 255.688 150.462 255.501 150.462C255.315 150.462 255.134 150.529 254.993 150.651C254.851 150.774 254.758 150.943 254.73 151.128V151.128Z" fill="#5B5B5B"/>
<path d="M278.325 117.133V166.306C278.353 166.491 278.446 166.66 278.588 166.782C278.729 166.904 278.91 166.971 279.096 166.971C279.283 166.971 279.463 166.904 279.605 166.782C279.746 166.66 279.84 166.491 279.867 166.306V117.133C279.84 116.947 279.746 116.778 279.605 116.656C279.463 116.534 279.283 116.467 279.096 116.467C278.91 116.467 278.729 116.534 278.588 116.656C278.446 116.778 278.353 116.947 278.325 117.133Z" fill="#5B5B5B"/>
<path d="M298.901 133.524V169.947C298.928 170.133 299.021 170.304 299.163 170.428C299.304 170.551 299.486 170.619 299.674 170.619C299.861 170.619 300.043 170.551 300.185 170.428C300.327 170.304 300.419 170.133 300.446 169.947V133.524C300.419 133.337 300.327 133.166 300.185 133.043C300.043 132.919 299.861 132.851 299.674 132.851C299.486 132.851 299.304 132.919 299.163 133.043C299.021 133.166 298.928 133.337 298.901 133.524V133.524Z" fill="#5B5B5B"/>
<path d="M318.867 174.197V214.256C318.895 214.441 318.989 214.61 319.13 214.732C319.272 214.854 319.452 214.921 319.639 214.921C319.825 214.921 320.006 214.854 320.147 214.732C320.289 214.61 320.382 214.441 320.41 214.256V174.197C320.382 174.012 320.289 173.843 320.147 173.721C320.006 173.598 319.825 173.531 319.639 173.531C319.452 173.531 319.272 173.598 319.13 173.721C318.989 173.843 318.895 174.012 318.867 174.197V174.197Z" fill="#5B5B5B"/>
<path d="M320.077 273.754V322.32C320.103 322.507 320.196 322.678 320.338 322.801C320.479 322.925 320.661 322.993 320.849 322.993C321.037 322.993 321.218 322.925 321.36 322.801C321.502 322.678 321.594 322.507 321.621 322.32V273.754C321.594 273.567 321.502 273.397 321.36 273.273C321.218 273.15 321.037 273.082 320.849 273.082C320.661 273.082 320.479 273.15 320.338 273.273C320.196 273.397 320.103 273.567 320.077 273.754Z" fill="#5B5B5B"/>
<path d="M349.11 270.719V349.031C349.137 349.217 349.229 349.388 349.371 349.512C349.513 349.635 349.694 349.703 349.882 349.703C350.07 349.703 350.252 349.635 350.393 349.512C350.535 349.388 350.628 349.217 350.654 349.031V270.719C350.628 270.533 350.535 270.362 350.393 270.238C350.252 270.115 350.07 270.047 349.882 270.047C349.694 270.047 349.513 270.115 349.371 270.238C349.229 270.362 349.137 270.533 349.11 270.719V270.719Z" fill="#5B5B5B"/>
<path d="M372.705 278.611V330.818C372.732 331.005 372.824 331.176 372.966 331.299C373.108 331.423 373.289 331.491 373.477 331.491C373.665 331.491 373.847 331.423 373.988 331.299C374.13 331.176 374.223 331.005 374.249 330.818V278.611C374.223 278.424 374.13 278.253 373.988 278.13C373.847 278.006 373.665 277.938 373.477 277.938C373.289 277.938 373.108 278.006 372.966 278.13C372.824 278.253 372.732 278.424 372.705 278.611V278.611Z" fill="#5B5B5B"/>
<path d="M372.705 345.388V505.051C372.732 505.238 372.824 505.409 372.966 505.532C373.108 505.656 373.289 505.724 373.477 505.724C373.665 505.724 373.847 505.656 373.988 505.532C374.13 505.409 374.223 505.238 374.249 505.051V345.388C374.223 345.201 374.13 345.03 373.988 344.907C373.847 344.783 373.665 344.715 373.477 344.715C373.289 344.715 373.108 344.783 372.966 344.907C372.824 345.03 372.732 345.201 372.705 345.388V345.388Z" fill="#5B5B5B"/>
<path d="M344.276 450.41V511.117C344.302 511.304 344.395 511.475 344.537 511.598C344.679 511.722 344.86 511.79 345.048 511.79C345.236 511.79 345.418 511.722 345.559 511.598C345.701 511.475 345.794 511.304 345.82 511.117V450.41C345.794 450.223 345.701 450.053 345.559 449.929C345.418 449.806 345.236 449.738 345.048 449.738C344.86 449.738 344.679 449.806 344.537 449.929C344.395 450.053 344.302 450.223 344.276 450.41V450.41Z" fill="#5B5B5B"/>
<path d="M316.448 480.167V509.908C316.475 510.093 316.569 510.262 316.71 510.384C316.852 510.506 317.032 510.573 317.219 510.573C317.405 510.573 317.586 510.506 317.727 510.384C317.869 510.262 317.962 510.093 317.99 509.908V480.167C317.962 479.981 317.869 479.812 317.727 479.69C317.586 479.568 317.405 479.501 317.219 479.501C317.032 479.501 316.852 479.568 316.71 479.69C316.569 479.812 316.475 479.981 316.448 480.167V480.167Z" fill="#5B5B5B"/>
<path d="M288.617 485.013V510.509C288.644 510.695 288.736 510.866 288.878 510.989C289.02 511.113 289.202 511.181 289.389 511.181C289.577 511.181 289.759 511.113 289.901 510.989C290.042 510.866 290.135 510.695 290.162 510.509V485.013C290.135 484.827 290.042 484.656 289.901 484.533C289.759 484.409 289.577 484.341 289.389 484.341C289.202 484.341 289.02 484.409 288.878 484.533C288.736 484.656 288.644 484.827 288.617 485.013V485.013Z" fill="#5B5B5B"/>
</svg>
